<svg width="27" height="27" viewBox="0 0 27 27" fill="none" xmlns="http://www.w3.org/2000/svg">
<circle cx="13.4883" cy="13.4883" r="13.4883" fill="#BEF1EB"/>
<path d="M21.2296 13.3845C21.1682 13.7355 21.125 14.0914 21.0432 14.4373C20.7566 15.6514 20.1472 16.6558 19.3206 17.5102C18.3962 18.4676 17.2978 19.1037 16.0812 19.482C15.1591 19.7684 14.2131 19.8949 13.2466 19.8403C12.5462 19.8007 11.8662 19.6692 11.1897 19.4807C11.1044 19.4572 10.9862 19.4745 10.9089 19.5216C9.65019 20.2954 8.39605 21.0767 7.14078 21.8554C7.00206 21.9423 6.86448 21.9571 6.73713 21.8306C6.60296 21.6967 6.61775 21.5405 6.68142 21.3743C7.13054 20.2012 7.57853 19.0281 8.02652 17.8537C8.04585 17.8041 8.0629 17.7533 8.08337 17.695C7.60582 17.2548 7.20331 16.7513 6.87699 16.1759C5.43638 13.6325 5.79113 10.5807 7.79002 8.46269C8.92136 7.26478 10.2835 6.54058 11.8253 6.20328C13.383 5.8635 14.9214 5.94163 16.4234 6.49842C18.204 7.15814 19.6651 8.2804 20.5815 10.1281C20.917 10.8039 21.1239 11.5257 21.1967 12.292C21.2023 12.3516 21.2194 12.4111 21.2308 12.4706V13.3845H21.2296ZM7.60582 20.7629C7.68996 20.7146 7.72407 20.696 7.75704 20.6761C8.68713 20.097 9.62176 19.5254 10.545 18.9326C10.8134 18.7602 11.0499 18.7106 11.3625 18.8086C12.702 19.2327 14.0641 19.2897 15.4251 18.945C17.1466 18.5085 18.6224 17.6231 19.6651 16.0184C21.0216 13.9302 20.8646 11.3446 19.3604 9.40266C18.5451 8.34984 17.5127 7.64548 16.3291 7.19162C15.0977 6.72039 13.8322 6.59887 12.5405 6.77868C10.9919 6.99445 9.60357 7.612 8.43471 8.76155C7.47961 9.70028 6.82582 10.8411 6.68256 12.2486C6.47562 14.2836 7.17261 15.9403 8.59048 17.2535C8.80765 17.4557 8.8338 17.5437 8.72579 17.8252C8.51771 18.3671 8.3085 18.9078 8.10156 19.4497C7.94124 19.8689 7.7832 20.288 7.60468 20.7629H7.60582Z" fill="#4B1B0B"/>
<path d="M21.2296 13.3845C21.1682 13.7355 21.125 14.0914 21.0432 14.4373C20.7566 15.6514 20.1472 16.6558 19.3206 17.5102C18.3962 18.4676 17.2978 19.1037 16.0812 19.482C15.1591 19.7684 14.2131 19.8949 13.2466 19.8403C12.5462 19.8007 11.8662 19.6692 11.1897 19.4807C11.1044 19.4572 10.9862 19.4745 10.9089 19.5216C9.65019 20.2954 8.39605 21.0767 7.14078 21.8554C7.00206 21.9423 6.86448 21.9571 6.73713 21.8306C6.60296 21.6967 6.61775 21.5405 6.68142 21.3743C7.13054 20.2012 7.57853 19.0281 8.02652 17.8537C8.04585 17.8041 8.0629 17.7533 8.08337 17.695C7.60582 17.2548 7.20331 16.7513 6.87699 16.1759C5.43638 13.6325 5.79113 10.5807 7.79002 8.46269C8.92136 7.26478 10.2835 6.54058 11.8253 6.20328C13.383 5.8635 14.9214 5.94163 16.4234 6.49842C18.204 7.15814 19.6651 8.2804 20.5815 10.1281C20.917 10.8039 21.1239 11.5257 21.1967 12.292C21.2023 12.3516 21.2194 12.4111 21.2308 12.4706V13.3845H21.2296ZM7.60582 20.7629C7.68996 20.7146 7.72407 20.696 7.75704 20.6761C8.68713 20.097 9.62176 19.5254 10.545 18.9326C10.8134 18.7602 11.0499 18.7106 11.3625 18.8086C12.702 19.2327 14.0641 19.2897 15.4251 18.945C17.1466 18.5085 18.6224 17.6231 19.6651 16.0184C21.0216 13.9302 20.8646 11.3446 19.3604 9.40266C18.5451 8.34984 17.5127 7.64548 16.3291 7.19162C15.0977 6.72039 13.8322 6.59887 12.5405 6.77868C10.9919 6.99445 9.60357 7.612 8.43471 8.76155C7.47961 9.70028 6.82582 10.8411 6.68256 12.2486C6.47562 14.2836 7.17261 15.9403 8.59048 17.2535C8.80765 17.4557 8.8338 17.5437 8.72579 17.8252C8.51771 18.3671 8.3085 18.9078 8.10156 19.4497C7.94124 19.8689 7.7832 20.288 7.60468 20.7629H7.60582Z" fill="black" fill-opacity="0.2"/>
<path d="M21.2296 13.3845C21.1682 13.7355 21.125 14.0914 21.0432 14.4373C20.7566 15.6514 20.1472 16.6558 19.3206 17.5102C18.3962 18.4676 17.2978 19.1037 16.0812 19.482C15.1591 19.7684 14.2131 19.8949 13.2466 19.8403C12.5462 19.8007 11.8662 19.6692 11.1897 19.4807C11.1044 19.4572 10.9862 19.4745 10.9089 19.5216C9.65019 20.2954 8.39605 21.0767 7.14078 21.8554C7.00206 21.9423 6.86448 21.9571 6.73713 21.8306C6.60296 21.6967 6.61775 21.5405 6.68142 21.3743C7.13054 20.2012 7.57853 19.0281 8.02652 17.8537C8.04585 17.8041 8.0629 17.7533 8.08337 17.695C7.60582 17.2548 7.20331 16.7513 6.87699 16.1759C5.43638 13.6325 5.79113 10.5807 7.79002 8.46269C8.92136 7.26478 10.2835 6.54058 11.8253 6.20328C13.383 5.8635 14.9214 5.94163 16.4234 6.49842C18.204 7.15814 19.6651 8.2804 20.5815 10.1281C20.917 10.8039 21.1239 11.5257 21.1967 12.292C21.2023 12.3516 21.2194 12.4111 21.2308 12.4706V13.3845H21.2296ZM7.60582 20.7629C7.68996 20.7146 7.72407 20.696 7.75704 20.6761C8.68713 20.097 9.62176 19.5254 10.545 18.9326C10.8134 18.7602 11.0499 18.7106 11.3625 18.8086C12.702 19.2327 14.0641 19.2897 15.4251 18.945C17.1466 18.5085 18.6224 17.6231 19.6651 16.0184C21.0216 13.9302 20.8646 11.3446 19.3604 9.40266C18.5451 8.34984 17.5127 7.64548 16.3291 7.19162C15.0977 6.72039 13.8322 6.59887 12.5405 6.77868C10.9919 6.99445 9.60357 7.612 8.43471 8.76155C7.47961 9.70028 6.82582 10.8411 6.68256 12.2486C6.47562 14.2836 7.17261 15.9403 8.59048 17.2535C8.80765 17.4557 8.8338 17.5437 8.72579 17.8252C8.51771 18.3671 8.3085 18.9078 8.10156 19.4497C7.94124 19.8689 7.7832 20.288 7.60468 20.7629H7.60582Z" fill="black" fill-opacity="0.2"/>
<path d="M21.2296 13.3845C21.1682 13.7355 21.125 14.0914 21.0432 14.4373C20.7566 15.6514 20.1472 16.6558 19.3206 17.5102C18.3962 18.4676 17.2978 19.1037 16.0812 19.482C15.1591 19.7684 14.2131 19.8949 13.2466 19.8403C12.5462 19.8007 11.8662 19.6692 11.1897 19.4807C11.1044 19.4572 10.9862 19.4745 10.9089 19.5216C9.65019 20.2954 8.39605 21.0767 7.14078 21.8554C7.00206 21.9423 6.86448 21.9571 6.73713 21.8306C6.60296 21.6967 6.61775 21.5405 6.68142 21.3743C7.13054 20.2012 7.57853 19.0281 8.02652 17.8537C8.04585 17.8041 8.0629 17.7533 8.08337 17.695C7.60582 17.2548 7.20331 16.7513 6.87699 16.1759C5.43638 13.6325 5.79113 10.5807 7.79002 8.46269C8.92136 7.26478 10.2835 6.54058 11.8253 6.20328C13.383 5.8635 14.9214 5.94163 16.4234 6.49842C18.204 7.15814 19.6651 8.2804 20.5815 10.1281C20.917 10.8039 21.1239 11.5257 21.1967 12.292C21.2023 12.3516 21.2194 12.4111 21.2308 12.4706V13.3845H21.2296ZM7.60582 20.7629C7.68996 20.7146 7.72407 20.696 7.75704 20.6761C8.68713 20.097 9.62176 19.5254 10.545 18.9326C10.8134 18.7602 11.0499 18.7106 11.3625 18.8086C12.702 19.2327 14.0641 19.2897 15.4251 18.945C17.1466 18.5085 18.6224 17.6231 19.6651 16.0184C21.0216 13.9302 20.8646 11.3446 19.3604 9.40266C18.5451 8.34984 17.5127 7.64548 16.3291 7.19162C15.0977 6.72039 13.8322 6.59887 12.5405 6.77868C10.9919 6.99445 9.60357 7.612 8.43471 8.76155C7.47961 9.70028 6.82582 10.8411 6.68256 12.2486C6.47562 14.2836 7.17261 15.9403 8.59048 17.2535C8.80765 17.4557 8.8338 17.5437 8.72579 17.8252C8.51771 18.3671 8.3085 18.9078 8.10156 19.4497C7.94124 19.8689 7.7832 20.288 7.60468 20.7629H7.60582Z" fill="black" fill-opacity="0.2"/>
<path d="M21.2296 13.3845C21.1682 13.7355 21.125 14.0914 21.0432 14.4373C20.7566 15.6514 20.1472 16.6558 19.3206 17.5102C18.3962 18.4676 17.2978 19.1037 16.0812 19.482C15.1591 19.7684 14.2131 19.8949 13.2466 19.8403C12.5462 19.8007 11.8662 19.6692 11.1897 19.4807C11.1044 19.4572 10.9862 19.4745 10.9089 19.5216C9.65019 20.2954 8.39605 21.0767 7.14078 21.8554C7.00206 21.9423 6.86448 21.9571 6.73713 21.8306C6.60296 21.6967 6.61775 21.5405 6.68142 21.3743C7.13054 20.2012 7.57853 19.0281 8.02652 17.8537C8.04585 17.8041 8.0629 17.7533 8.08337 17.695C7.60582 17.2548 7.20331 16.7513 6.87699 16.1759C5.43638 13.6325 5.79113 10.5807 7.79002 8.46269C8.92136 7.26478 10.2835 6.54058 11.8253 6.20328C13.383 5.8635 14.9214 5.94163 16.4234 6.49842C18.204 7.15814 19.6651 8.2804 20.5815 10.1281C20.917 10.8039 21.1239 11.5257 21.1967 12.292C21.2023 12.3516 21.2194 12.4111 21.2308 12.4706V13.3845H21.2296ZM7.60582 20.7629C7.68996 20.7146 7.72407 20.696 7.75704 20.6761C8.68713 20.097 9.62176 19.5254 10.545 18.9326C10.8134 18.7602 11.0499 18.7106 11.3625 18.8086C12.702 19.2327 14.0641 19.2897 15.4251 18.945C17.1466 18.5085 18.6224 17.6231 19.6651 16.0184C21.0216 13.9302 20.8646 11.3446 19.3604 9.40266C18.5451 8.34984 17.5127 7.64548 16.3291 7.19162C15.0977 6.72039 13.8322 6.59887 12.5405 6.77868C10.9919 6.99445 9.60357 7.612 8.43471 8.76155C7.47961 9.70028 6.82582 10.8411 6.68256 12.2486C6.47562 14.2836 7.17261 15.9403 8.59048 17.2535C8.80765 17.4557 8.8338 17.5437 8.72579 17.8252C8.51771 18.3671 8.3085 18.9078 8.10156 19.4497C7.94124 19.8689 7.7832 20.288 7.60468 20.7629H7.60582Z" fill="black" fill-opacity="0.2"/>
<path d="M13.6209 12.2288C14.7317 12.2288 15.8415 12.2288 16.9524 12.2288C17.016 12.2288 17.0797 12.2263 17.1422 12.2374C17.3196 12.2684 17.4072 12.4024 17.4151 12.5834C17.4231 12.757 17.3219 12.8649 17.1718 12.9083C17.1059 12.9269 17.0342 12.9257 16.9649 12.9257C14.7317 12.9257 12.4975 12.9257 10.2644 12.9257C10.195 12.9257 10.1234 12.9269 10.0574 12.9083C9.90736 12.8662 9.80502 12.7595 9.81185 12.5847C9.81867 12.4036 9.90394 12.2684 10.0825 12.2362C10.1507 12.2238 10.2212 12.2263 10.2917 12.2263C11.4025 12.2263 12.5123 12.2263 13.6231 12.2263L13.6209 12.2288Z" fill="#4B1B0B"/>
<path d="M13.6209 12.2288C14.7317 12.2288 15.8415 12.2288 16.9524 12.2288C17.016 12.2288 17.0797 12.2263 17.1422 12.2374C17.3196 12.2684 17.4072 12.4024 17.4151 12.5834C17.4231 12.757 17.3219 12.8649 17.1718 12.9083C17.1059 12.9269 17.0342 12.9257 16.9649 12.9257C14.7317 12.9257 12.4975 12.9257 10.2644 12.9257C10.195 12.9257 10.1234 12.9269 10.0574 12.9083C9.90736 12.8662 9.80502 12.7595 9.81185 12.5847C9.81867 12.4036 9.90394 12.2684 10.0825 12.2362C10.1507 12.2238 10.2212 12.2263 10.2917 12.2263C11.4025 12.2263 12.5123 12.2263 13.6231 12.2263L13.6209 12.2288Z" fill="black" fill-opacity="0.2"/>
<path d="M13.6209 12.2288C14.7317 12.2288 15.8415 12.2288 16.9524 12.2288C17.016 12.2288 17.0797 12.2263 17.1422 12.2374C17.3196 12.2684 17.4072 12.4024 17.4151 12.5834C17.4231 12.757 17.3219 12.8649 17.1718 12.9083C17.1059 12.9269 17.0342 12.9257 16.9649 12.9257C14.7317 12.9257 12.4975 12.9257 10.2644 12.9257C10.195 12.9257 10.1234 12.9269 10.0574 12.9083C9.90736 12.8662 9.80502 12.7595 9.81185 12.5847C9.81867 12.4036 9.90394 12.2684 10.0825 12.2362C10.1507 12.2238 10.2212 12.2263 10.2917 12.2263C11.4025 12.2263 12.5123 12.2263 13.6231 12.2263L13.6209 12.2288Z" fill="black" fill-opacity="0.2"/>
<path d="M13.6209 12.2288C14.7317 12.2288 15.8415 12.2288 16.9524 12.2288C17.016 12.2288 17.0797 12.2263 17.1422 12.2374C17.3196 12.2684 17.4072 12.4024 17.4151 12.5834C17.4231 12.757 17.3219 12.8649 17.1718 12.9083C17.1059 12.9269 17.0342 12.9257 16.9649 12.9257C14.7317 12.9257 12.4975 12.9257 10.2644 12.9257C10.195 12.9257 10.1234 12.9269 10.0574 12.9083C9.90736 12.8662 9.80502 12.7595 9.81185 12.5847C9.81867 12.4036 9.90394 12.2684 10.0825 12.2362C10.1507 12.2238 10.2212 12.2263 10.2917 12.2263C11.4025 12.2263 12.5123 12.2263 13.6231 12.2263L13.6209 12.2288Z" fill="black" fill-opacity="0.2"/>
<path d="M13.6209 12.2288C14.7317 12.2288 15.8415 12.2288 16.9524 12.2288C17.016 12.2288 17.0797 12.2263 17.1422 12.2374C17.3196 12.2684 17.4072 12.4024 17.4151 12.5834C17.4231 12.757 17.3219 12.8649 17.1718 12.9083C17.1059 12.9269 17.0342 12.9257 16.9649 12.9257C14.7317 12.9257 12.4975 12.9257 10.2644 12.9257C10.195 12.9257 10.1234 12.9269 10.0574 12.9083C9.90736 12.8662 9.80502 12.7595 9.81185 12.5847C9.81867 12.4036 9.90394 12.2684 10.0825 12.2362C10.1507 12.2238 10.2212 12.2263 10.2917 12.2263C11.4025 12.2263 12.5123 12.2263 13.6231 12.2263L13.6209 12.2288Z" fill="black" fill-opacity="0.2"/>
<path d="M13.6239 14.306C14.728 14.306 15.832 14.306 16.9361 14.306C17.0054 14.306 17.0771 14.3035 17.1453 14.3159C17.3238 14.3482 17.408 14.4833 17.4148 14.6644C17.4205 14.8392 17.3181 14.9446 17.1692 14.9868C17.1032 15.0054 17.0305 15.0041 16.9622 15.0041C14.7291 15.0041 12.4949 15.0041 10.2618 15.0041C10.1867 15.0041 10.1083 15.0017 10.0366 14.9793C9.8945 14.9347 9.80354 14.8243 9.81264 14.6606C9.82173 14.4895 9.89905 14.3556 10.0673 14.3196C10.1356 14.306 10.206 14.306 10.2754 14.306C11.392 14.306 12.5085 14.306 13.6262 14.306H13.6239Z" fill="#4B1B0B"/>
<path d="M13.6239 14.306C14.728 14.306 15.832 14.306 16.9361 14.306C17.0054 14.306 17.0771 14.3035 17.1453 14.3159C17.3238 14.3482 17.408 14.4833 17.4148 14.6644C17.4205 14.8392 17.3181 14.9446 17.1692 14.9868C17.1032 15.0054 17.0305 15.0041 16.9622 15.0041C14.7291 15.0041 12.4949 15.0041 10.2618 15.0041C10.1867 15.0041 10.1083 15.0017 10.0366 14.9793C9.8945 14.9347 9.80354 14.8243 9.81264 14.6606C9.82173 14.4895 9.89905 14.3556 10.0673 14.3196C10.1356 14.306 10.206 14.306 10.2754 14.306C11.392 14.306 12.5085 14.306 13.6262 14.306H13.6239Z" fill="black" fill-opacity="0.2"/>
<path d="M13.6239 14.306C14.728 14.306 15.832 14.306 16.9361 14.306C17.0054 14.306 17.0771 14.3035 17.1453 14.3159C17.3238 14.3482 17.408 14.4833 17.4148 14.6644C17.4205 14.8392 17.3181 14.9446 17.1692 14.9868C17.1032 15.0054 17.0305 15.0041 16.9622 15.0041C14.7291 15.0041 12.4949 15.0041 10.2618 15.0041C10.1867 15.0041 10.1083 15.0017 10.0366 14.9793C9.8945 14.9347 9.80354 14.8243 9.81264 14.6606C9.82173 14.4895 9.89905 14.3556 10.0673 14.3196C10.1356 14.306 10.206 14.306 10.2754 14.306C11.392 14.306 12.5085 14.306 13.6262 14.306H13.6239Z" fill="black" fill-opacity="0.2"/>
<path d="M13.6239 14.306C14.728 14.306 15.832 14.306 16.9361 14.306C17.0054 14.306 17.0771 14.3035 17.1453 14.3159C17.3238 14.3482 17.408 14.4833 17.4148 14.6644C17.4205 14.8392 17.3181 14.9446 17.1692 14.9868C17.1032 15.0054 17.0305 15.0041 16.9622 15.0041C14.7291 15.0041 12.4949 15.0041 10.2618 15.0041C10.1867 15.0041 10.1083 15.0017 10.0366 14.9793C9.8945 14.9347 9.80354 14.8243 9.81264 14.6606C9.82173 14.4895 9.89905 14.3556 10.0673 14.3196C10.1356 14.306 10.206 14.306 10.2754 14.306C11.392 14.306 12.5085 14.306 13.6262 14.306H13.6239Z" fill="black" fill-opacity="0.2"/>
<path d="M13.6239 14.306C14.728 14.306 15.832 14.306 16.9361 14.306C17.0054 14.306 17.0771 14.3035 17.1453 14.3159C17.3238 14.3482 17.408 14.4833 17.4148 14.6644C17.4205 14.8392 17.3181 14.9446 17.1692 14.9868C17.1032 15.0054 17.0305 15.0041 16.9622 15.0041C14.7291 15.0041 12.4949 15.0041 10.2618 15.0041C10.1867 15.0041 10.1083 15.0017 10.0366 14.9793C9.8945 14.9347 9.80354 14.8243 9.81264 14.6606C9.82173 14.4895 9.89905 14.3556 10.0673 14.3196C10.1356 14.306 10.206 14.306 10.2754 14.306C11.392 14.306 12.5085 14.306 13.6262 14.306H13.6239Z" fill="black" fill-opacity="0.2"/>
<path d="M12.6703 10.1517C13.464 10.1517 14.2565 10.1517 15.0501 10.1517C15.1138 10.1517 15.1775 10.1492 15.24 10.1604C15.4174 10.1926 15.5038 10.3253 15.5117 10.5076C15.5186 10.6812 15.4174 10.7891 15.2673 10.8325C15.2013 10.8511 15.1297 10.8499 15.0603 10.8499C13.4617 10.8499 11.863 10.8499 10.2632 10.8499C10.1939 10.8499 10.1223 10.8499 10.0563 10.8325C9.90622 10.7904 9.80503 10.6837 9.81185 10.5089C9.81981 10.3278 9.90508 10.1939 10.0825 10.1616C10.145 10.1505 10.2087 10.153 10.2723 10.153C11.0717 10.153 11.871 10.153 12.6703 10.153V10.1517Z" fill="#4B1B0B"/>
<path d="M12.6703 10.1517C13.464 10.1517 14.2565 10.1517 15.0501 10.1517C15.1138 10.1517 15.1775 10.1492 15.24 10.1604C15.4174 10.1926 15.5038 10.3253 15.5117 10.5076C15.5186 10.6812 15.4174 10.7891 15.2673 10.8325C15.2013 10.8511 15.1297 10.8499 15.0603 10.8499C13.4617 10.8499 11.863 10.8499 10.2632 10.8499C10.1939 10.8499 10.1223 10.8499 10.0563 10.8325C9.90622 10.7904 9.80503 10.6837 9.81185 10.5089C9.81981 10.3278 9.90508 10.1939 10.0825 10.1616C10.145 10.1505 10.2087 10.153 10.2723 10.153C11.0717 10.153 11.871 10.153 12.6703 10.153V10.1517Z" fill="black" fill-opacity="0.2"/>
<path d="M12.6703 10.1517C13.464 10.1517 14.2565 10.1517 15.0501 10.1517C15.1138 10.1517 15.1775 10.1492 15.24 10.1604C15.4174 10.1926 15.5038 10.3253 15.5117 10.5076C15.5186 10.6812 15.4174 10.7891 15.2673 10.8325C15.2013 10.8511 15.1297 10.8499 15.0603 10.8499C13.4617 10.8499 11.863 10.8499 10.2632 10.8499C10.1939 10.8499 10.1223 10.8499 10.0563 10.8325C9.90622 10.7904 9.80503 10.6837 9.81185 10.5089C9.81981 10.3278 9.90508 10.1939 10.0825 10.1616C10.145 10.1505 10.2087 10.153 10.2723 10.153C11.0717 10.153 11.871 10.153 12.6703 10.153V10.1517Z" fill="black" fill-opacity="0.2"/>
<path d="M12.6703 10.1517C13.464 10.1517 14.2565 10.1517 15.0501 10.1517C15.1138 10.1517 15.1775 10.1492 15.24 10.1604C15.4174 10.1926 15.5038 10.3253 15.5117 10.5076C15.5186 10.6812 15.4174 10.7891 15.2673 10.8325C15.2013 10.8511 15.1297 10.8499 15.0603 10.8499C13.4617 10.8499 11.863 10.8499 10.2632 10.8499C10.1939 10.8499 10.1223 10.8499 10.0563 10.8325C9.90622 10.7904 9.80503 10.6837 9.81185 10.5089C9.81981 10.3278 9.90508 10.1939 10.0825 10.1616C10.145 10.1505 10.2087 10.153 10.2723 10.153C11.0717 10.153 11.871 10.153 12.6703 10.153V10.1517Z" fill="black" fill-opacity="0.2"/>
<path d="M12.6703 10.1517C13.464 10.1517 14.2565 10.1517 15.0501 10.1517C15.1138 10.1517 15.1775 10.1492 15.24 10.1604C15.4174 10.1926 15.5038 10.3253 15.5117 10.5076C15.5186 10.6812 15.4174 10.7891 15.2673 10.8325C15.2013 10.8511 15.1297 10.8499 15.0603 10.8499C13.4617 10.8499 11.863 10.8499 10.2632 10.8499C10.1939 10.8499 10.1223 10.8499 10.0563 10.8325C9.90622 10.7904 9.80503 10.6837 9.81185 10.5089C9.81981 10.3278 9.90508 10.1939 10.0825 10.1616C10.145 10.1505 10.2087 10.153 10.2723 10.153C11.0717 10.153 11.871 10.153 12.6703 10.153V10.1517Z" fill="black" fill-opacity="0.2"/>
</svg>
