<svg width="28" height="28" viewBox="0 0 28 28" fill="none" xmlns="http://www.w3.org/2000/svg">
<g id="Monitor">
<circle id="Ellipse 64" cx="13.7832" cy="13.9879" r="13.4883" fill="#FFD099"/>
<g id="Group 57">
<path id="Vector" d="M22.7754 14.1759C22.4668 14.7631 21.9729 15.1851 21.5151 15.6322C20.2359 16.8817 18.812 17.9183 17.1822 18.6353C15.054 19.5712 12.9047 19.6403 10.7413 18.7763C8.47258 17.8705 6.62197 16.3594 5.00433 14.5214C4.71685 14.1949 4.7218 13.7803 5.00793 13.4552C6.47913 11.7818 8.15671 10.3802 10.1623 9.43964C12.532 8.32839 14.922 8.30566 17.3092 9.39883C19.3622 10.3389 21.0659 11.7609 22.5646 13.4607C22.652 13.5595 22.7056 13.6898 22.775 13.8058V14.1759H22.7754ZM22.0216 14.0038C20.9194 12.669 18.9891 11.0193 17.1322 10.1543C14.876 9.10385 12.6325 9.11406 10.3858 10.1868C9.11107 10.7958 7.97737 11.6185 6.92928 12.5693C6.44309 13.0104 5.99339 13.4937 5.53874 13.9463C5.57343 14.0126 5.57794 14.028 5.5874 14.0386C6.97254 15.6155 8.55504 16.9304 10.4421 17.8185C12.3585 18.7201 14.3294 18.9033 16.3342 18.1497C18.5889 17.3023 20.4067 15.8112 22.0216 14.0038Z" fill="#652910"/>
<path id="Vector_2" d="M11.087 13.9498C11.1365 12.4171 12.3606 11.2475 13.8643 11.2913C15.3355 11.3342 16.5105 12.5496 16.4805 14.0285C16.4492 15.5867 15.2219 16.6947 13.7657 16.6854C12.2495 16.6756 11.0396 15.4185 11.087 13.9498ZM13.7929 11.9701C12.6779 11.9669 11.7695 12.8625 11.7622 13.9729C11.7545 15.0947 12.6576 16.0086 13.7775 16.0122C14.8924 16.0155 15.8033 15.117 15.809 14.0086C15.8146 12.8836 14.9143 11.9734 13.7933 11.9701H13.7929Z" fill="#652910"/>
</g>
</g>
</svg>
