<svg width="54" height="54" viewBox="0 0 54 54" fill="none" xmlns="http://www.w3.org/2000/svg">
<g id="Warning">
<path id="Vector" d="M26.9906 53.098C19.1964 53.098 11.4008 53.098 3.60658 53.0966C3.10269 53.0966 2.58133 53.1449 2.09638 53.0468C0.341524 52.69 -0.492943 51.011 0.302204 49.4514C3.8891 42.4198 7.48474 35.3924 11.0804 28.365C15.5658 19.6018 20.0542 10.8414 24.5454 2.08102C24.7391 1.70143 24.943 1.32184 25.1935 0.976374C26.127 -0.317354 27.8527 -0.325884 28.792 0.953627C29.0163 1.25929 29.2013 1.5948 29.3731 1.93032C37.3639 17.519 45.3518 33.1092 53.3382 48.6993C53.5217 49.0576 53.7299 49.4087 53.8595 49.7855C54.4406 51.4602 53.146 53.1392 51.3168 53.1378C43.2081 53.1321 35.0993 53.135 26.9906 53.135C26.9906 53.1222 26.9906 53.1094 26.9906 53.0966V53.098ZM51.662 50.7167C43.4353 34.6588 35.2522 18.6891 27.0008 2.58145C18.7449 18.6948 10.5634 34.6673 2.33958 50.7167H51.662Z" fill="#FFB4A4"/>
<path id="Vector_2" d="M25.8039 28.2798C25.8039 25.6809 25.8024 23.0807 25.8068 20.4819C25.8068 20.2231 25.8053 19.9544 25.8752 19.7099C26.0296 19.1782 26.4111 18.8739 26.9878 18.8654C27.5689 18.8569 27.9505 19.1611 28.1179 19.6857C28.1951 19.9274 28.1966 20.1989 28.1966 20.4563C28.2009 25.6781 28.1995 30.9014 28.1995 36.1232C28.1995 36.2653 28.1995 36.4075 28.1893 36.5483C28.1296 37.2918 27.7014 37.7183 27.0155 37.724C26.3252 37.7297 25.8723 37.3046 25.8199 36.5724C25.7937 36.2199 25.8053 35.8644 25.8053 35.509C25.8053 33.0993 25.8053 30.6881 25.8053 28.2784L25.8039 28.2798Z" fill="#FFB4A4"/>
<path id="Vector_3" d="M27.0299 43.6666C25.9478 43.6425 25.1556 42.8477 25.1906 41.8213C25.2226 40.8645 26.0614 40.0954 27.0415 40.1238C28.0173 40.1522 28.8182 40.9598 28.8124 41.9109C28.808 42.8676 27.975 43.6865 27.0299 43.6652V43.6666Z" fill="#FFB4A4"/>
</g>
</svg>
