<svg width="52" height="42" viewBox="0 0 52 42" fill="none" xmlns="http://www.w3.org/2000/svg">
<rect x="26" y="8" width="22" height="6" fill="#B2E09C"/>
<rect x="26" y="36" width="22" height="8" transform="rotate(-90 26 36)" fill="#B2E09C"/>
<rect x="48" y="38" width="22" height="8" transform="rotate(180 48 38)" fill="#B2E09C"/>
<rect x="23" y="1" width="28" height="7" rx="3" fill="#BEF1EB"/>
<path d="M7.5 26V29L10 30L12.5 29L15.5 24.5L11 21L7.5 26Z" fill="#FFB4A4"/>
<path d="M16.3301 38.9282L18.9282 37.4282L18.5442 34.7632L16.4282 33.0981L11.0311 32.75L10.25 38.3971L16.3301 38.9282Z" fill="#FFB4A4"/>
<path d="M0.724609 34.7874C1.11171 33.3686 1.77676 32.1408 3.12843 31.5623C3.79348 31.2778 4.5461 31.1415 5.267 31.0987C6.5146 31.0253 7.76855 31.0787 8.89304 31.0787C8.27114 30.5604 7.51344 30.0981 6.9677 29.4408C5.7239 27.9418 5.73279 25.6693 6.87632 24.0862C7.04131 23.8564 7.21772 23.6333 7.41064 23.4289C9.82208 20.8799 12.2221 18.3175 14.6551 15.7925C16.8191 13.5467 20.1367 14.1425 21.4998 16.9868C22.2169 18.4831 22.0024 20.4844 20.855 21.767C19.3079 23.4957 17.6859 25.151 16.0956 26.8356C15.3519 27.6225 14.598 28.4001 13.8606 29.1936C13.1537 29.9538 12.4391 30.6953 11.4314 31.08C12.7069 31.08 13.9812 31.08 15.2567 31.08C16.7112 31.08 17.9359 31.6038 18.8345 32.8475C19.8486 34.2503 19.9857 35.8014 19.332 37.3725C18.686 38.9276 17.5108 39.9229 15.8621 39.9496C12.1079 40.0097 8.35237 40.003 4.59814 39.9549C2.93298 39.9336 1.40489 38.5682 0.931485 36.8782C0.871834 36.6671 0.794414 36.4627 0.724609 36.2543C0.724609 35.7653 0.724609 35.2764 0.724609 34.7887V34.7874ZM9.14434 33.3298C7.64163 33.3298 6.20873 33.2911 4.7809 33.3419C3.6488 33.3819 2.83525 34.4053 2.85683 35.625C2.87714 36.7994 3.72241 37.7065 4.86848 37.7292C6.13131 37.7546 7.39414 37.7412 8.65824 37.7386C8.81689 37.7386 8.97554 37.7011 9.14687 37.6798V33.3298H9.14434ZM11.3019 33.3432V37.7372C12.7221 37.7372 14.1056 37.7359 15.489 37.7372C16.583 37.7386 17.479 36.9169 17.5526 35.8415C17.6402 34.5416 16.9307 33.4327 15.7986 33.3646C14.315 33.2737 12.8237 33.3419 11.3032 33.3419L11.3019 33.3432ZM13.2793 20.4417C14.2693 21.461 15.2567 22.4777 16.2327 23.4823C17.2265 22.4577 18.2989 21.4263 19.2863 20.3107C20.0656 19.4303 19.9362 18.1024 19.101 17.262C18.3129 16.4698 17.1122 16.4284 16.3038 17.2407C15.2694 18.2814 14.2832 19.3742 13.2793 20.4417ZM14.5942 25.1924C13.6182 24.173 12.6498 23.1604 11.722 22.1905C10.6953 23.2298 9.58982 24.2586 8.58971 25.3915C7.87389 26.2037 8.04904 27.5584 8.82958 28.344C9.57966 29.0988 10.8133 29.1763 11.59 28.4068C12.6308 27.374 13.6004 26.2612 14.5942 25.1911V25.1924Z" fill="#7C442D"/>
<path d="M49.2439 8.97906C49.2439 10.6343 49.2401 12.2762 49.2439 13.9195C49.2566 19.1378 49.2744 24.3562 49.282 29.5745C49.2846 31.1509 49.2719 32.7274 49.2389 34.3025C49.1691 37.601 46.9924 39.9497 43.8931 39.9737C39.041 40.0125 34.1889 40.0044 29.3356 39.9751C26.7097 39.959 24.7932 38.4146 24.1282 35.8148C23.967 35.1829 23.9315 34.5002 23.9315 33.8402C23.9188 25.779 23.92 17.7177 23.9315 9.6564C23.9315 9.15407 23.8781 8.8802 23.3083 8.75862C22.5303 8.59162 21.9668 7.95837 21.9033 7.13942C21.8107 5.92902 21.7612 4.67988 21.9477 3.49087C22.265 1.4682 24.0343 0.0360296 26.0294 0.013318C28.286 -0.0120656 30.5439 0.00663822 32.8017 0.00663822C37.4647 0.00663822 42.1264 0.00396627 46.7893 0.00663822C49.6171 0.0079742 51.3584 1.84628 51.3635 4.82684C51.3635 5.18221 51.3635 5.53758 51.3635 5.89295C51.3635 7.87287 51.0474 8.34714 49.2439 8.98039V8.97906ZM26.0434 8.93898V9.47604C26.0434 17.7123 26.0434 25.9486 26.0434 34.1836C26.0434 34.3613 26.0484 34.539 26.0624 34.7153C26.1716 36.1328 27.2085 37.6772 29.2062 37.7012C30.8878 37.7213 32.5695 37.7026 34.2524 37.7066C37.518 37.7146 40.7836 37.736 44.0492 37.7306C45.4402 37.7279 46.7272 36.7834 46.962 35.3619C47.1904 33.9845 47.1447 32.5577 47.2234 31.0761H46.3236C42.464 31.0761 38.6044 31.0788 34.7448 31.0761C33.1622 31.0748 32.3753 30.2478 32.374 28.5859C32.3702 24.3455 32.3702 20.1051 32.374 15.866C32.3753 14.1854 33.1952 13.3343 34.802 13.3343C38.6818 13.333 42.563 13.3343 46.4429 13.3343C46.665 13.3343 46.8858 13.3343 47.0965 13.3343V8.94165H26.0421L26.0434 8.93898ZM47.0711 15.6189H34.5532V28.8557H47.0711V15.6189ZM49.2439 6.6411C49.2439 6.01853 49.2084 5.46143 49.2503 4.91234C49.3848 3.16756 48.2794 2.21501 46.7145 2.22703C39.9459 2.2778 33.1774 2.24841 26.4089 2.24974C26.2198 2.24974 26.0294 2.24974 25.8403 2.2631C24.9557 2.3299 24.1244 3.00591 24.0241 3.92105C23.9264 4.80947 24.0025 5.71794 24.0025 6.64243H49.2452L49.2439 6.6411Z" fill="#7C442D"/>
</svg>
