<svg width="27" height="27" viewBox="0 0 27 27" fill="none" xmlns="http://www.w3.org/2000/svg">
<g id="Investigate">
<circle id="Ellipse 62" cx="13.4883" cy="13.4883" r="13.4883" fill="#B2E09C"/>
<g id="Vector">
<path d="M16.4142 16.3985C16.4069 16.4768 16.3967 16.5318 16.3971 16.5863C16.4014 17.3929 16.4112 18.1995 16.4112 19.0057C16.4112 19.7272 16.404 20.449 16.3946 21.1705C16.3912 21.4354 16.2527 21.5781 15.9853 21.5785C14.3216 21.5823 12.6579 21.5823 10.9943 21.5785C10.7004 21.5776 10.5799 21.4333 10.5799 21.1113C10.5786 19.6411 10.5794 18.1706 10.5794 16.7004C10.5794 16.6097 10.5794 16.519 10.5794 16.398C10.4747 16.398 10.392 16.398 10.3098 16.398C8.85146 16.398 7.39309 16.398 5.93473 16.398C5.49773 16.398 5.39551 16.2962 5.39551 15.861C5.39551 14.2754 5.39551 12.6898 5.39551 11.1043C5.39551 10.6724 5.48879 10.5787 5.91769 10.5783C7.37606 10.5779 8.83442 10.5783 10.2928 10.5783C10.3767 10.5783 10.4602 10.5783 10.5671 10.5783C10.5718 10.4786 10.5794 10.3969 10.5794 10.3151C10.5803 8.84282 10.5794 7.37054 10.5803 5.89782C10.5803 5.49834 10.6829 5.39571 11.0833 5.39571C12.6831 5.39528 14.2833 5.39528 15.883 5.39571C16.2962 5.39571 16.3971 5.49749 16.3971 5.90975C16.3971 7.37522 16.3971 8.84027 16.3971 10.3057V10.5783C16.5079 10.5783 16.5914 10.5783 16.6748 10.5783C18.1332 10.5783 19.5916 10.5783 21.0499 10.5783C21.4899 10.5783 21.5815 10.6711 21.5815 11.1166C21.5815 12.7022 21.5815 14.2878 21.5815 15.8733C21.5815 16.2899 21.472 16.398 21.0504 16.398C19.592 16.398 18.1336 16.398 16.6753 16.398C16.5918 16.398 16.5083 16.398 16.415 16.398L16.4142 16.3985ZM15.6927 20.8626V20.5832C15.6927 19.1177 15.6927 17.6527 15.6927 16.1872C15.6927 15.7869 15.7906 15.6906 16.1957 15.6902C17.6681 15.6902 19.1405 15.6902 20.6134 15.6902C20.6956 15.6902 20.7778 15.6902 20.8595 15.6902V11.2857C20.7595 11.2857 20.6755 11.2857 20.5916 11.2857C19.126 11.2857 17.6609 11.2857 16.1952 11.2857C15.8017 11.2857 15.6927 11.1762 15.6927 10.7827C15.6927 9.31044 15.6927 7.83816 15.6927 6.36545C15.6927 6.28325 15.6927 6.20148 15.6927 6.11715H11.2831C11.2831 6.21468 11.2831 6.29858 11.2831 6.38206C11.2831 7.83305 11.2831 9.28446 11.2831 10.7355C11.2831 11.1903 11.1894 11.2857 10.7421 11.2857C9.28377 11.2857 7.82541 11.2857 6.36704 11.2857H6.11404V15.6902H6.37897C7.85139 15.6902 9.32381 15.6902 10.7967 15.6902C11.1787 15.6902 11.2831 15.7958 11.2831 16.183C11.2835 17.6625 11.2831 19.142 11.2831 20.6215V20.8626H15.6927Z" fill="#4B1B0B"/>
<path d="M16.4142 16.3985C16.4069 16.4768 16.3967 16.5318 16.3971 16.5863C16.4014 17.3929 16.4112 18.1995 16.4112 19.0057C16.4112 19.7272 16.404 20.449 16.3946 21.1705C16.3912 21.4354 16.2527 21.5781 15.9853 21.5785C14.3216 21.5823 12.6579 21.5823 10.9943 21.5785C10.7004 21.5776 10.5799 21.4333 10.5799 21.1113C10.5786 19.6411 10.5794 18.1706 10.5794 16.7004C10.5794 16.6097 10.5794 16.519 10.5794 16.398C10.4747 16.398 10.392 16.398 10.3098 16.398C8.85146 16.398 7.39309 16.398 5.93473 16.398C5.49773 16.398 5.39551 16.2962 5.39551 15.861C5.39551 14.2754 5.39551 12.6898 5.39551 11.1043C5.39551 10.6724 5.48879 10.5787 5.91769 10.5783C7.37606 10.5779 8.83442 10.5783 10.2928 10.5783C10.3767 10.5783 10.4602 10.5783 10.5671 10.5783C10.5718 10.4786 10.5794 10.3969 10.5794 10.3151C10.5803 8.84282 10.5794 7.37054 10.5803 5.89782C10.5803 5.49834 10.6829 5.39571 11.0833 5.39571C12.6831 5.39528 14.2833 5.39528 15.883 5.39571C16.2962 5.39571 16.3971 5.49749 16.3971 5.90975C16.3971 7.37522 16.3971 8.84027 16.3971 10.3057V10.5783C16.5079 10.5783 16.5914 10.5783 16.6748 10.5783C18.1332 10.5783 19.5916 10.5783 21.0499 10.5783C21.4899 10.5783 21.5815 10.6711 21.5815 11.1166C21.5815 12.7022 21.5815 14.2878 21.5815 15.8733C21.5815 16.2899 21.472 16.398 21.0504 16.398C19.592 16.398 18.1336 16.398 16.6753 16.398C16.5918 16.398 16.5083 16.398 16.415 16.398L16.4142 16.3985ZM15.6927 20.8626V20.5832C15.6927 19.1177 15.6927 17.6527 15.6927 16.1872C15.6927 15.7869 15.7906 15.6906 16.1957 15.6902C17.6681 15.6902 19.1405 15.6902 20.6134 15.6902C20.6956 15.6902 20.7778 15.6902 20.8595 15.6902V11.2857C20.7595 11.2857 20.6755 11.2857 20.5916 11.2857C19.126 11.2857 17.6609 11.2857 16.1952 11.2857C15.8017 11.2857 15.6927 11.1762 15.6927 10.7827C15.6927 9.31044 15.6927 7.83816 15.6927 6.36545C15.6927 6.28325 15.6927 6.20148 15.6927 6.11715H11.2831C11.2831 6.21468 11.2831 6.29858 11.2831 6.38206C11.2831 7.83305 11.2831 9.28446 11.2831 10.7355C11.2831 11.1903 11.1894 11.2857 10.7421 11.2857C9.28377 11.2857 7.82541 11.2857 6.36704 11.2857H6.11404V15.6902H6.37897C7.85139 15.6902 9.32381 15.6902 10.7967 15.6902C11.1787 15.6902 11.2831 15.7958 11.2831 16.183C11.2835 17.6625 11.2831 19.142 11.2831 20.6215V20.8626H15.6927Z" fill="black" fill-opacity="0.2"/>
<path d="M16.4142 16.3985C16.4069 16.4768 16.3967 16.5318 16.3971 16.5863C16.4014 17.3929 16.4112 18.1995 16.4112 19.0057C16.4112 19.7272 16.404 20.449 16.3946 21.1705C16.3912 21.4354 16.2527 21.5781 15.9853 21.5785C14.3216 21.5823 12.6579 21.5823 10.9943 21.5785C10.7004 21.5776 10.5799 21.4333 10.5799 21.1113C10.5786 19.6411 10.5794 18.1706 10.5794 16.7004C10.5794 16.6097 10.5794 16.519 10.5794 16.398C10.4747 16.398 10.392 16.398 10.3098 16.398C8.85146 16.398 7.39309 16.398 5.93473 16.398C5.49773 16.398 5.39551 16.2962 5.39551 15.861C5.39551 14.2754 5.39551 12.6898 5.39551 11.1043C5.39551 10.6724 5.48879 10.5787 5.91769 10.5783C7.37606 10.5779 8.83442 10.5783 10.2928 10.5783C10.3767 10.5783 10.4602 10.5783 10.5671 10.5783C10.5718 10.4786 10.5794 10.3969 10.5794 10.3151C10.5803 8.84282 10.5794 7.37054 10.5803 5.89782C10.5803 5.49834 10.6829 5.39571 11.0833 5.39571C12.6831 5.39528 14.2833 5.39528 15.883 5.39571C16.2962 5.39571 16.3971 5.49749 16.3971 5.90975C16.3971 7.37522 16.3971 8.84027 16.3971 10.3057V10.5783C16.5079 10.5783 16.5914 10.5783 16.6748 10.5783C18.1332 10.5783 19.5916 10.5783 21.0499 10.5783C21.4899 10.5783 21.5815 10.6711 21.5815 11.1166C21.5815 12.7022 21.5815 14.2878 21.5815 15.8733C21.5815 16.2899 21.472 16.398 21.0504 16.398C19.592 16.398 18.1336 16.398 16.6753 16.398C16.5918 16.398 16.5083 16.398 16.415 16.398L16.4142 16.3985ZM15.6927 20.8626V20.5832C15.6927 19.1177 15.6927 17.6527 15.6927 16.1872C15.6927 15.7869 15.7906 15.6906 16.1957 15.6902C17.6681 15.6902 19.1405 15.6902 20.6134 15.6902C20.6956 15.6902 20.7778 15.6902 20.8595 15.6902V11.2857C20.7595 11.2857 20.6755 11.2857 20.5916 11.2857C19.126 11.2857 17.6609 11.2857 16.1952 11.2857C15.8017 11.2857 15.6927 11.1762 15.6927 10.7827C15.6927 9.31044 15.6927 7.83816 15.6927 6.36545C15.6927 6.28325 15.6927 6.20148 15.6927 6.11715H11.2831C11.2831 6.21468 11.2831 6.29858 11.2831 6.38206C11.2831 7.83305 11.2831 9.28446 11.2831 10.7355C11.2831 11.1903 11.1894 11.2857 10.7421 11.2857C9.28377 11.2857 7.82541 11.2857 6.36704 11.2857H6.11404V15.6902H6.37897C7.85139 15.6902 9.32381 15.6902 10.7967 15.6902C11.1787 15.6902 11.2831 15.7958 11.2831 16.183C11.2835 17.6625 11.2831 19.142 11.2831 20.6215V20.8626H15.6927Z" fill="black" fill-opacity="0.2"/>
<path d="M16.4142 16.3985C16.4069 16.4768 16.3967 16.5318 16.3971 16.5863C16.4014 17.3929 16.4112 18.1995 16.4112 19.0057C16.4112 19.7272 16.404 20.449 16.3946 21.1705C16.3912 21.4354 16.2527 21.5781 15.9853 21.5785C14.3216 21.5823 12.6579 21.5823 10.9943 21.5785C10.7004 21.5776 10.5799 21.4333 10.5799 21.1113C10.5786 19.6411 10.5794 18.1706 10.5794 16.7004C10.5794 16.6097 10.5794 16.519 10.5794 16.398C10.4747 16.398 10.392 16.398 10.3098 16.398C8.85146 16.398 7.39309 16.398 5.93473 16.398C5.49773 16.398 5.39551 16.2962 5.39551 15.861C5.39551 14.2754 5.39551 12.6898 5.39551 11.1043C5.39551 10.6724 5.48879 10.5787 5.91769 10.5783C7.37606 10.5779 8.83442 10.5783 10.2928 10.5783C10.3767 10.5783 10.4602 10.5783 10.5671 10.5783C10.5718 10.4786 10.5794 10.3969 10.5794 10.3151C10.5803 8.84282 10.5794 7.37054 10.5803 5.89782C10.5803 5.49834 10.6829 5.39571 11.0833 5.39571C12.6831 5.39528 14.2833 5.39528 15.883 5.39571C16.2962 5.39571 16.3971 5.49749 16.3971 5.90975C16.3971 7.37522 16.3971 8.84027 16.3971 10.3057V10.5783C16.5079 10.5783 16.5914 10.5783 16.6748 10.5783C18.1332 10.5783 19.5916 10.5783 21.0499 10.5783C21.4899 10.5783 21.5815 10.6711 21.5815 11.1166C21.5815 12.7022 21.5815 14.2878 21.5815 15.8733C21.5815 16.2899 21.472 16.398 21.0504 16.398C19.592 16.398 18.1336 16.398 16.6753 16.398C16.5918 16.398 16.5083 16.398 16.415 16.398L16.4142 16.3985ZM15.6927 20.8626V20.5832C15.6927 19.1177 15.6927 17.6527 15.6927 16.1872C15.6927 15.7869 15.7906 15.6906 16.1957 15.6902C17.6681 15.6902 19.1405 15.6902 20.6134 15.6902C20.6956 15.6902 20.7778 15.6902 20.8595 15.6902V11.2857C20.7595 11.2857 20.6755 11.2857 20.5916 11.2857C19.126 11.2857 17.6609 11.2857 16.1952 11.2857C15.8017 11.2857 15.6927 11.1762 15.6927 10.7827C15.6927 9.31044 15.6927 7.83816 15.6927 6.36545C15.6927 6.28325 15.6927 6.20148 15.6927 6.11715H11.2831C11.2831 6.21468 11.2831 6.29858 11.2831 6.38206C11.2831 7.83305 11.2831 9.28446 11.2831 10.7355C11.2831 11.1903 11.1894 11.2857 10.7421 11.2857C9.28377 11.2857 7.82541 11.2857 6.36704 11.2857H6.11404V15.6902H6.37897C7.85139 15.6902 9.32381 15.6902 10.7967 15.6902C11.1787 15.6902 11.2831 15.7958 11.2831 16.183C11.2835 17.6625 11.2831 19.142 11.2831 20.6215V20.8626H15.6927Z" fill="black" fill-opacity="0.2"/>
<path d="M16.4142 16.3985C16.4069 16.4768 16.3967 16.5318 16.3971 16.5863C16.4014 17.3929 16.4112 18.1995 16.4112 19.0057C16.4112 19.7272 16.404 20.449 16.3946 21.1705C16.3912 21.4354 16.2527 21.5781 15.9853 21.5785C14.3216 21.5823 12.6579 21.5823 10.9943 21.5785C10.7004 21.5776 10.5799 21.4333 10.5799 21.1113C10.5786 19.6411 10.5794 18.1706 10.5794 16.7004C10.5794 16.6097 10.5794 16.519 10.5794 16.398C10.4747 16.398 10.392 16.398 10.3098 16.398C8.85146 16.398 7.39309 16.398 5.93473 16.398C5.49773 16.398 5.39551 16.2962 5.39551 15.861C5.39551 14.2754 5.39551 12.6898 5.39551 11.1043C5.39551 10.6724 5.48879 10.5787 5.91769 10.5783C7.37606 10.5779 8.83442 10.5783 10.2928 10.5783C10.3767 10.5783 10.4602 10.5783 10.5671 10.5783C10.5718 10.4786 10.5794 10.3969 10.5794 10.3151C10.5803 8.84282 10.5794 7.37054 10.5803 5.89782C10.5803 5.49834 10.6829 5.39571 11.0833 5.39571C12.6831 5.39528 14.2833 5.39528 15.883 5.39571C16.2962 5.39571 16.3971 5.49749 16.3971 5.90975C16.3971 7.37522 16.3971 8.84027 16.3971 10.3057V10.5783C16.5079 10.5783 16.5914 10.5783 16.6748 10.5783C18.1332 10.5783 19.5916 10.5783 21.0499 10.5783C21.4899 10.5783 21.5815 10.6711 21.5815 11.1166C21.5815 12.7022 21.5815 14.2878 21.5815 15.8733C21.5815 16.2899 21.472 16.398 21.0504 16.398C19.592 16.398 18.1336 16.398 16.6753 16.398C16.5918 16.398 16.5083 16.398 16.415 16.398L16.4142 16.3985ZM15.6927 20.8626V20.5832C15.6927 19.1177 15.6927 17.6527 15.6927 16.1872C15.6927 15.7869 15.7906 15.6906 16.1957 15.6902C17.6681 15.6902 19.1405 15.6902 20.6134 15.6902C20.6956 15.6902 20.7778 15.6902 20.8595 15.6902V11.2857C20.7595 11.2857 20.6755 11.2857 20.5916 11.2857C19.126 11.2857 17.6609 11.2857 16.1952 11.2857C15.8017 11.2857 15.6927 11.1762 15.6927 10.7827C15.6927 9.31044 15.6927 7.83816 15.6927 6.36545C15.6927 6.28325 15.6927 6.20148 15.6927 6.11715H11.2831C11.2831 6.21468 11.2831 6.29858 11.2831 6.38206C11.2831 7.83305 11.2831 9.28446 11.2831 10.7355C11.2831 11.1903 11.1894 11.2857 10.7421 11.2857C9.28377 11.2857 7.82541 11.2857 6.36704 11.2857H6.11404V15.6902H6.37897C7.85139 15.6902 9.32381 15.6902 10.7967 15.6902C11.1787 15.6902 11.2831 15.7958 11.2831 16.183C11.2835 17.6625 11.2831 19.142 11.2831 20.6215V20.8626H15.6927Z" fill="black" fill-opacity="0.2"/>
</g>
</g>
</svg>
