<svg width="33" height="33" viewBox="0 0 33 33" fill="none" xmlns="http://www.w3.org/2000/svg">
<g id="Layer 1">
<ellipse id="Ellipse 79" cx="25.1648" cy="25.5" rx="4.43582" ry="4.5" fill="#CEC8F4"/>
<rect id="Rectangle 136" width="10.9337" height="34.6772" rx="5.34061" transform="matrix(0.70201 0.712167 -0.70201 0.712167 24.7671 0.234863)" fill="#CEC8F4"/>
<g id="Group">
<g id="Group_2">
<path id="Vector" d="M20.5047 4.25392L4.22503 20.7691C2.05233 22.9732 2.05233 26.5468 4.22503 28.7509C6.39772 30.9551 9.92036 30.9551 12.0931 28.7509L28.3727 12.2358C30.5454 10.0316 30.5454 6.45804 28.3727 4.25391C26.2 2.04978 22.6774 2.04979 20.5047 4.25392Z" stroke="#4B1B0B" stroke-width="1.19979" stroke-miterlimit="10"/>
<path id="Vector 30" d="M17.772 11L21.7149 7" stroke="#4B1B0B" stroke-width="1.2" stroke-linecap="round"/>
<path id="Vector_2" d="M12.3584 12.5081L20.2282 20.4917" stroke="#4B1B0B" stroke-width="1.19979" stroke-miterlimit="10"/>
</g>
<path id="Vector_3" d="M25.5601 30.4001C28.0095 30.4001 29.9951 28.3857 29.9951 25.9008C29.9951 23.416 28.0095 21.4016 25.5601 21.4016C23.1106 21.4016 21.125 23.416 21.125 25.9008C21.125 28.3857 23.1106 30.4001 25.5601 30.4001Z" stroke="#4B1B0B" stroke-width="1.19979" stroke-miterlimit="10"/>
<path id="Vector_4" d="M28.7632 22.4912L22.3472 29.0001" stroke="#4B1B0B" stroke-width="1.19979" stroke-miterlimit="10"/>
</g>
</g>
</svg>
