<svg width="24" height="26" viewBox="0 0 24 26" fill="none" xmlns="http://www.w3.org/2000/svg">
<g id="Export">
<path id="Vector" d="M12.7918 1.91593V2.40126C12.7918 7.97427 12.7918 13.5473 12.7918 19.121C12.7918 19.2644 12.7997 19.4104 12.7742 19.5499C12.722 19.8353 12.5394 20 12.2543 20C11.9692 20 11.7865 19.836 11.7369 19.5492C11.7128 19.4098 11.7193 19.263 11.7193 19.1203C11.7187 13.5473 11.7193 7.97361 11.7193 2.4006V1.92456C11.5921 2.04274 11.5086 2.11577 11.431 2.19478C9.36812 4.29346 7.30529 6.3928 5.24245 8.49214C5.1733 8.56251 5.10871 8.6382 5.03239 8.69928C4.7897 8.89448 4.49026 8.88917 4.29519 8.69264C4.08643 8.48218 4.07208 8.20266 4.26518 7.94373C4.33042 7.85676 4.41197 7.78173 4.4883 7.70339C6.92365 5.21897 9.3603 2.73522 11.7963 0.251463C12.1257 -0.0838209 12.3861 -0.0838209 12.7149 0.251463C15.1509 2.73522 17.5875 5.21831 20.0228 7.70273C20.1142 7.79568 20.2055 7.89195 20.2805 7.99884C20.4547 8.24516 20.4038 8.48948 20.2114 8.68866C20.0242 8.88253 19.788 8.9051 19.5603 8.74974C19.4448 8.67073 19.3424 8.56915 19.2432 8.4689C17.1954 6.38549 15.1495 4.30142 13.1024 2.21735C13.0208 2.13436 12.9347 2.05536 12.7918 1.91659V1.91593Z" fill="#7C442D"/>
<path id="Vector_2" d="M12.2254 25.9941C9.51257 25.9941 6.79975 25.9905 4.08631 25.9956C2.71303 25.9985 1.6803 25.2931 0.966049 23.9194C0.635921 23.2845 0.526696 22.5747 0.519946 21.841C0.51381 21.1647 0.515651 20.4883 0.521173 19.8127C0.522401 19.6703 0.514424 19.488 0.580695 19.3943C0.695442 19.2337 0.851915 19.063 1.01575 19.0165C1.22684 18.957 1.41215 19.1175 1.48456 19.3761C1.52506 19.5214 1.53978 19.6827 1.54163 19.8374C1.54776 20.4774 1.54163 21.1174 1.54469 21.7575C1.55144 23.5758 2.55901 24.7693 4.10104 24.7744C5.75352 24.7802 7.40539 24.7759 9.05787 24.7759C12.8316 24.7759 16.6054 24.7715 20.3786 24.7788C21.4334 24.781 22.2483 24.2899 22.7091 23.1559C22.8748 22.7476 22.9306 22.2551 22.9576 21.7945C22.9981 21.1095 22.9668 20.4186 22.9687 19.7306C22.9693 19.4357 23.0411 19.1778 23.289 19.0478C23.5442 18.9141 23.8449 19.0717 23.9363 19.3863C23.9658 19.488 23.9891 19.5984 23.9891 19.7045C23.9897 20.513 24.0216 21.3252 23.9732 22.1301C23.8363 24.4025 22.4121 25.9694 20.486 25.9927C19.2931 26.0072 18.0996 25.9956 16.9061 25.9956C15.3456 25.9956 13.7852 25.9956 12.2248 25.9956L12.2254 25.9941Z" fill="#7C442D"/>
</g>
</svg>
