<svg width="21" height="28" viewBox="0 0 21 28" fill="none" xmlns="http://www.w3.org/2000/svg">
<g id="Icons/Drop">
<path id="Vector" d="M10.8974 0.0007005C11.3682 0.217155 11.6485 0.582816 11.9139 0.974396C14.3133 4.51402 16.6124 8.10269 18.5735 11.8525C19.4068 13.4447 20.1626 15.065 20.6744 16.7686C21.3465 19.0025 20.9484 21.1194 19.7274 23.1095C18.1581 25.6684 15.7255 27.2915 12.4952 27.8211C9.64245 28.289 6.93028 27.8547 4.51665 26.3339C1.89767 24.6835 0.427854 22.423 0.0495399 19.6021C-0.111579 18.4007 0.137998 17.2379 0.542375 16.0954C1.46881 13.4769 2.78304 11.0056 4.25207 8.60355C5.85852 5.97737 7.55027 3.39252 9.23334 0.804175C9.43711 0.491051 9.81305 0.26619 10.1092 0C10.3722 0 10.6344 0 10.8974 0V0.0007005ZM10.5302 1.16773C10.418 1.31484 10.3549 1.38699 10.3051 1.46545C8.65757 4.04329 6.97293 6.60362 5.37674 9.20598C4.00565 11.4413 2.77435 13.741 1.88267 16.1697C1.56517 17.0341 1.28479 17.9104 1.31875 18.8302C1.39457 20.9071 2.19069 22.7228 3.81215 24.2534C5.44151 25.7917 7.43891 26.6772 9.79015 26.8117C13.2479 27.0099 16.0422 25.8303 18.0538 23.3176C19.2764 21.7905 19.8388 20.0595 19.6429 18.1815C19.5055 16.8617 18.9605 15.6317 18.4021 14.4142C17.0263 11.4161 15.3251 8.56012 13.5267 5.74901C12.5568 4.23382 11.5561 2.73475 10.5302 1.16773Z" fill="#4B1B0B"/>
</g>
</svg>
