<svg width="27" height="28" viewBox="0 0 27 28" fill="none" xmlns="http://www.w3.org/2000/svg">
<path d="M26.6102 12.9854C26.5029 13.6025 26.4274 14.2283 26.2844 14.8367C25.7838 16.9715 24.7189 18.7378 23.2746 20.2402C21.6594 21.9237 19.7403 23.0423 17.6145 23.7074C16.0033 24.2111 14.3504 24.4335 12.6617 24.3376C11.4379 24.2678 10.2499 24.0367 9.06781 23.7052C8.91881 23.6638 8.7122 23.6943 8.5771 23.7772C6.37785 25.1379 4.18654 26.5117 1.99324 27.8811C1.75086 28.0337 1.51048 28.0599 1.28797 27.8375C1.05354 27.602 1.07937 27.3272 1.19062 27.035C1.97536 24.9722 2.75811 22.9093 3.54087 20.8443C3.57464 20.757 3.60444 20.6676 3.6402 20.5651C2.80579 19.791 2.10251 18.9057 1.53233 17.8939C-0.984796 13.4215 -0.364951 8.05501 3.12764 4.33053C5.10438 2.22406 7.48443 0.950589 10.1784 0.357464C12.9001 -0.240022 15.5881 -0.102643 18.2125 0.876449C21.3237 2.03653 23.8765 4.00998 25.4778 7.25908C26.0639 8.44751 26.4254 9.71663 26.5526 11.0642C26.5625 11.1689 26.5923 11.2736 26.6122 11.3783V12.9854H26.6102ZM2.80579 25.96C2.95281 25.8749 3.01241 25.8422 3.07002 25.8073C4.69513 24.789 6.32818 23.7837 7.94136 22.7414C8.41022 22.4383 8.82345 22.3511 9.36979 22.5233C11.7101 23.2691 14.0901 23.3694 16.4682 22.7632C19.476 21.9956 22.0548 20.4387 23.8765 17.617C26.2466 13.9448 25.9725 9.39826 23.3441 5.98343C21.9197 4.13209 20.1157 2.89351 18.0476 2.09541C15.896 1.26678 13.6849 1.05308 11.428 1.36927C8.72213 1.74869 6.29639 2.83463 4.25408 4.85606C2.58527 6.50677 1.44293 8.51293 1.19261 10.9879C0.831031 14.5663 2.04887 17.4796 4.52626 19.7888C4.90572 20.1443 4.95141 20.2991 4.76267 20.7941C4.39911 21.747 4.03356 22.6978 3.67199 23.6507C3.39186 24.3877 3.11572 25.1248 2.80381 25.96H2.80579Z" fill="#4B1B0B"/>
<path d="M13.3153 10.9531C15.2563 10.9531 17.1953 10.9531 19.1363 10.9531C19.2475 10.9531 19.3588 10.9487 19.4681 10.9683C19.778 11.0229 19.931 11.2584 19.9449 11.5767C19.9588 11.882 19.782 12.0717 19.5197 12.1481C19.4045 12.1808 19.2793 12.1786 19.1581 12.1786C15.2563 12.1786 11.3525 12.1786 7.45062 12.1786C7.32944 12.1786 7.20428 12.1808 7.08905 12.1481C6.82681 12.0739 6.648 11.8864 6.65992 11.5789C6.67184 11.2605 6.82085 11.0229 7.13276 10.9662C7.25196 10.9444 7.37513 10.9487 7.4983 10.9487C9.43929 10.9487 11.3783 10.9487 13.3193 10.9487L13.3153 10.9531Z" fill="#4B1B0B"/>
<path d="M13.3213 14.6056C15.2503 14.6056 17.1794 14.6056 19.1085 14.6056C19.2297 14.6056 19.3548 14.6012 19.474 14.623C19.7859 14.6797 19.933 14.9174 19.9449 15.2358C19.9548 15.5432 19.776 15.7286 19.5157 15.8027C19.4005 15.8354 19.2734 15.8333 19.1542 15.8333C15.2523 15.8333 11.3485 15.8333 7.44666 15.8333C7.31554 15.8333 7.17846 15.8289 7.0533 15.7897C6.80496 15.7111 6.64603 15.5171 6.66192 15.2292C6.67781 14.9283 6.81291 14.6928 7.10694 14.6296C7.22614 14.6056 7.34931 14.6056 7.4705 14.6056C9.42142 14.6056 11.3723 14.6056 13.3252 14.6056H13.3213Z" fill="#4B1B0B"/>
<path d="M11.6544 7.30052C13.0412 7.30052 14.4259 7.30052 15.8126 7.30052C15.9238 7.30052 16.0351 7.29616 16.1444 7.31579C16.4543 7.37248 16.6053 7.60581 16.6192 7.92636C16.6311 8.23164 16.4543 8.42135 16.192 8.49768C16.0768 8.53039 15.9516 8.5282 15.8305 8.5282C13.0372 8.5282 10.2439 8.5282 7.44864 8.5282C7.32746 8.5282 7.20229 8.5282 7.08707 8.49768C6.82482 8.42354 6.64801 8.236 6.65993 7.92854C6.67384 7.61017 6.82284 7.37466 7.13276 7.31797C7.24203 7.29834 7.35328 7.3027 7.46454 7.3027C8.86117 7.3027 10.2578 7.3027 11.6544 7.3027V7.30052Z" fill="#4B1B0B"/>
</svg>
