<svg width="27" height="27" viewBox="0 0 27 27" fill="none" xmlns="http://www.w3.org/2000/svg">
<g id="Investigate">
<circle id="Ellipse 62" cx="13.4883" cy="13.4883" r="13.4883" fill="#FFD099"/>
<path id="Vector" d="M16.4142 16.3983C16.4069 16.4767 16.3967 16.5316 16.3971 16.5861C16.4014 17.3928 16.4112 18.1994 16.4112 19.0056C16.4112 19.727 16.404 20.4489 16.3946 21.1704C16.3912 21.4353 16.2527 21.5779 15.9853 21.5784C14.3216 21.5822 12.6579 21.5822 10.9943 21.5784C10.7004 21.5775 10.5799 21.4331 10.5799 21.1112C10.5786 19.641 10.5794 18.1704 10.5794 16.7003C10.5794 16.6096 10.5794 16.5189 10.5794 16.3979C10.4747 16.3979 10.392 16.3979 10.3098 16.3979C8.85146 16.3979 7.39309 16.3979 5.93473 16.3979C5.49773 16.3979 5.39551 16.2961 5.39551 15.8609C5.39551 14.2753 5.39551 12.6897 5.39551 11.1041C5.39551 10.6723 5.48879 10.5786 5.91769 10.5782C7.37606 10.5778 8.83442 10.5782 10.2928 10.5782C10.3767 10.5782 10.4602 10.5782 10.5671 10.5782C10.5718 10.4785 10.5794 10.3968 10.5794 10.315C10.5803 8.8427 10.5794 7.37041 10.5803 5.8977C10.5803 5.49822 10.6829 5.39558 11.0833 5.39558C12.6831 5.39516 14.2833 5.39516 15.883 5.39558C16.2962 5.39558 16.3971 5.49737 16.3971 5.90963C16.3971 7.3751 16.3971 8.84014 16.3971 10.3056V10.5782C16.5079 10.5782 16.5914 10.5782 16.6748 10.5782C18.1332 10.5782 19.5916 10.5782 21.0499 10.5782C21.4899 10.5782 21.5815 10.671 21.5815 11.1165C21.5815 12.7021 21.5815 14.2876 21.5815 15.8732C21.5815 16.2897 21.472 16.3979 21.0504 16.3979C19.592 16.3979 18.1336 16.3979 16.6753 16.3979C16.5918 16.3979 16.5083 16.3979 16.415 16.3979L16.4142 16.3983ZM15.6927 20.8625V20.5831C15.6927 19.1176 15.6927 17.6526 15.6927 16.1871C15.6927 15.7868 15.7906 15.6905 16.1957 15.6901C17.6681 15.6901 19.1405 15.6901 20.6134 15.6901C20.6956 15.6901 20.7778 15.6901 20.8595 15.6901V11.2856C20.7595 11.2856 20.6755 11.2856 20.5916 11.2856C19.126 11.2856 17.6609 11.2856 16.1952 11.2856C15.8017 11.2856 15.6927 11.1761 15.6927 10.7826C15.6927 9.31032 15.6927 7.83804 15.6927 6.36532C15.6927 6.28313 15.6927 6.20136 15.6927 6.11703H11.2831C11.2831 6.21456 11.2831 6.29846 11.2831 6.38193C11.2831 7.83292 11.2831 9.28434 11.2831 10.7353C11.2831 11.1902 11.1894 11.2856 10.7421 11.2856C9.28377 11.2856 7.82541 11.2856 6.36704 11.2856H6.11404V15.6901H6.37897C7.85139 15.6901 9.32381 15.6901 10.7967 15.6901C11.1787 15.6901 11.2831 15.7957 11.2831 16.1828C11.2835 17.6624 11.2831 19.1419 11.2831 20.6214V20.8625H15.6927Z" fill="#4B1B0B"/>
</g>
</svg>
