<svg width="28" height="28" viewBox="0 0 28 28" fill="none" xmlns="http://www.w3.org/2000/svg">
<g id="Icons/Imaging">
<path id="Vector" d="M20.8 0C21.4066 0.235812 21.9198 0.579705 22.0925 1.25065C22.1613 1.51734 22.1789 1.80368 22.1789 2.0816C22.1838 7.16841 22.1824 12.2559 22.1824 17.3427C22.1824 18.2874 22.1838 19.2327 22.1824 20.1774C22.1796 21.4757 21.4691 22.1804 20.159 22.1804C16.9491 22.1818 13.7391 22.1804 10.5292 22.1804C7.76296 22.1804 4.99674 22.1635 2.23123 22.1888C1.15985 22.1986 0.374212 21.8484 0 20.7915V1.40013C0.223965 0.690593 0.690852 0.223881 1.40066 0H20.8ZM2.894 17.4894C3.03161 16.8507 3.1643 16.2388 3.29559 15.6261C3.51394 14.6084 4.09737 13.8666 5.04238 13.4504C6.17063 12.9535 7.32205 12.5079 8.46154 12.0362C8.58581 11.985 8.73956 11.9324 8.80907 11.832C9.00355 11.5492 8.89613 10.6873 8.69954 10.394C8.39694 9.94131 8.09084 9.48442 7.84651 8.99946C7.38103 8.07376 7.39647 7.06735 7.40771 6.05883C7.42736 4.26848 8.76694 2.6599 10.499 2.3897C12.2844 2.11178 13.9954 3.17013 14.5872 4.8924C14.8217 5.57527 14.7775 6.27358 14.774 6.96909C14.7684 8.16219 14.3977 9.25001 13.6471 10.1708C13.2982 10.5989 13.247 11.0361 13.2905 11.5358C13.3137 11.7983 13.4274 11.9394 13.6844 12.0369C14.7614 12.4468 15.8348 12.8658 16.8957 13.315C17.9994 13.7824 18.7043 14.5951 18.9247 15.7994C19.0272 16.3581 19.1571 16.9111 19.2772 17.481H21.0106V17.1497C21.0106 12.0861 21.0106 7.02243 21.0106 1.95878C21.0106 1.3503 20.8379 1.18046 20.2138 1.18046C14.133 1.18046 8.05152 1.18046 1.97075 1.18046C1.32343 1.18046 1.17319 1.33276 1.17319 1.98896C1.17319 7.02945 1.17319 12.0699 1.17319 17.1097C1.17319 17.2332 1.18372 17.3568 1.18933 17.4908H2.894V17.4894ZM18.071 17.4894C18.0162 17.1413 17.9664 16.8311 17.9179 16.5209C17.7403 15.3825 17.1681 14.5818 16.0391 14.1901C15.0611 13.8512 14.1 13.4616 13.1444 13.063C12.877 12.9514 12.6059 12.7703 12.4227 12.5493C11.9923 12.0313 11.9355 10.2971 12.5519 9.67251C12.785 9.4367 12.9584 9.13351 13.1241 8.84155C13.6303 7.95094 13.631 6.97049 13.5966 5.98724C13.5573 4.85731 12.7267 3.82703 11.6539 3.57719C10.5404 3.31751 9.39812 3.87897 8.84909 4.92819C8.57106 5.45947 8.5823 6.02444 8.56685 6.59432C8.53877 7.6667 8.77326 8.67171 9.48026 9.49144C10.0181 10.1154 10.1276 10.8095 10.0686 11.5737C10.0068 12.3703 9.63823 12.8876 8.83785 13.162C7.74962 13.5346 6.69298 14.0013 5.63073 14.4456C5.00306 14.7088 4.58743 15.1713 4.4421 15.8542C4.32766 16.391 4.20549 16.9258 4.08122 17.4887H18.071V17.4894ZM21.0085 18.7021H1.18582C1.18582 19.3148 1.15914 19.9086 1.20337 20.4974C1.21531 20.6574 1.41892 20.8308 1.57337 20.9438C1.67096 21.0154 1.84157 21.0006 1.97988 21.0006C8.04731 21.0027 14.1147 21.0027 20.1829 21.002C20.2762 21.002 20.3717 21.009 20.4623 20.9922C20.7859 20.9325 20.998 20.7487 21.0057 20.4069C21.0183 19.8489 21.0092 19.2903 21.0092 18.7014L21.0085 18.7021Z" fill="#4B1B0B"/>
<path id="Vector_2" d="M22.414 27.9992C21.752 27.8694 20.974 27.7199 20.1982 27.5634C15.1615 26.5464 10.1254 25.5274 5.08865 24.509C4.6681 24.4241 4.42799 24.1567 4.49469 23.8332C4.56419 23.4991 4.89487 23.2766 5.32736 23.3658C9.43526 24.2143 13.5488 25.0361 17.6602 25.8657C19.1907 26.1745 20.7206 26.4847 22.2511 26.7928C22.817 26.9065 23.0733 26.7408 23.1835 26.1969C24.3897 20.2139 25.5959 14.2309 26.8021 8.24713C26.9123 7.70112 26.7536 7.4632 26.206 7.35021C25.4414 7.19159 24.6761 7.03789 23.913 6.87297C23.5065 6.78524 23.2951 6.51644 23.3597 6.20202C23.432 5.84971 23.7199 5.66653 24.1306 5.74303C24.9324 5.89322 25.7335 6.04762 26.5304 6.22168C27.6284 6.4617 28.1732 7.29687 27.9521 8.40083C26.7389 14.4421 25.5229 20.4827 24.3033 26.5226C24.1194 27.4328 23.3983 28.0252 22.4147 27.9992H22.414Z" fill="#4B1B0B"/>
</g>
</svg>
