<svg width="28" height="28" viewBox="0 0 28 28" fill="none" xmlns="http://www.w3.org/2000/svg">
<g id="Icons/Home">
<path id="Vector" d="M1.406 28.0001C1.2278 27.9192 1.03907 27.8568 0.873499 27.7554C0.285576 27.3949 0.00775092 26.8536 0.00704934 26.164C0.00564618 24.8792 0.00704934 23.5944 0.00704934 22.3089C0.00704934 18.7722 0.0161699 15.2356 3.35497e-05 11.699C-0.00347435 10.9505 0.268037 10.3943 0.845436 9.93884C4.80445 6.81511 8.75574 3.68074 12.7119 0.552051C13.6486 -0.188619 14.3754 -0.180105 15.3015 0.554179C19.2177 3.65804 23.1332 6.7619 27.0557 9.85796C27.4788 10.1921 27.8211 10.5695 28.0001 11.086V26.584C27.7699 27.2949 27.3118 27.7752 26.6004 27.9994H18.5526C18.1857 27.8547 18.0755 27.5688 18.0769 27.1892C18.0818 24.8459 18.1099 22.5018 18.065 20.1592C18.0089 17.2469 14.91 15.3108 12.3156 16.5715C10.7412 17.3363 9.92176 18.641 9.92597 20.4402C9.93159 22.6898 9.92317 24.9395 9.93088 27.1892C9.93229 27.5695 9.81933 27.8533 9.45451 28.0001H1.406ZM19.2514 26.7926C19.3755 26.7997 19.466 26.8082 19.5558 26.8089C21.7251 26.8096 23.8937 26.8111 26.063 26.8089C26.6572 26.8089 26.8263 26.6351 26.8263 26.0243C26.8277 21.2369 26.8256 16.4488 26.8305 11.6614C26.8305 11.3407 26.7351 11.1109 26.4776 10.9072C22.4723 7.7452 18.4733 4.57395 14.4715 1.40694C14.0765 1.09407 13.9152 1.10613 13.4844 1.44667C9.50152 4.60019 5.52076 7.75585 1.53228 10.9023C1.2734 11.1066 1.17448 11.3322 1.17518 11.6529C1.18079 16.4403 1.17869 21.2277 1.17939 26.0158C1.17939 26.6422 1.34636 26.8082 1.97007 26.8082C4.1155 26.8089 6.26163 26.8082 8.40705 26.8082C8.5172 26.8082 8.62735 26.8082 8.75434 26.8082C8.75434 26.6224 8.75434 26.4939 8.75434 26.3655C8.75434 24.3734 8.77468 22.3812 8.75013 20.3898C8.70944 17.1001 11.7627 14.275 15.3632 15.203C17.3964 15.7273 19.2759 17.679 19.2549 20.4139C19.2394 22.4068 19.2521 24.3996 19.2521 26.3925C19.2521 26.5188 19.2521 26.6458 19.2521 26.7912L19.2514 26.7926Z" fill="#4B1B0B"/>
</g>
</svg>
