<svg width="24" height="28" viewBox="0 0 24 28" fill="none" xmlns="http://www.w3.org/2000/svg">
<g id="Icons/Records">
<path id="Vector" d="M17.6098 0C18.1337 0.170522 18.5194 0.531215 18.898 0.91296C20.1371 2.16345 21.377 3.41325 22.635 4.6448C23.1175 5.11706 23.3342 5.6567 23.3328 6.32826C23.325 12.8706 23.3285 19.4128 23.3278 25.9558C23.3278 27.3277 22.6574 28 21.2949 28C14.8385 28 8.38206 28 1.92564 28C0.976844 28 0.275592 27.5179 0.0750339 26.7158C0.0217388 26.5039 0.00350626 26.2779 0.00350626 26.0583C0 18.022 0 9.98712 0 1.95153C0 0.912258 0.388494 0.39578 1.45159 0H17.6098ZM1.17109 13.9849C1.17109 17.9743 1.17109 21.963 1.17109 25.9523C1.17109 26.6688 1.31976 26.8211 2.02101 26.8211C8.45499 26.8211 14.8897 26.8211 21.3237 26.8211C22.0004 26.8211 22.1561 26.6604 22.1561 25.9685C22.1561 19.4248 22.1532 12.8811 22.1631 6.33738C22.1631 5.9781 22.0446 5.72196 21.7977 5.47635C20.4906 4.17814 19.1877 2.87572 17.8981 1.55996C17.633 1.28979 17.3595 1.1705 16.978 1.1712C11.9893 1.18102 7.0006 1.17751 2.01119 1.17822C1.32186 1.17822 1.17039 1.32979 1.17039 2.01679C1.17039 6.00617 1.17039 9.99484 1.17039 13.9842L1.17109 13.9849Z" fill="#4B1B0B"/>
<path id="Vector_2" d="M11.6549 12.2496C9.40599 12.2496 7.15707 12.2496 4.90816 12.2496C4.81489 12.2496 4.72093 12.2552 4.62836 12.246C4.32051 12.2152 4.09821 11.9906 4.08559 11.7057C4.07157 11.385 4.29316 11.1134 4.61083 11.0699C4.70269 11.0573 4.79666 11.0622 4.88993 11.0622C9.4109 11.0622 13.9319 11.0622 18.4528 11.0622C18.523 11.0622 18.5931 11.0594 18.6625 11.0657C19.0159 11.0959 19.2424 11.3429 19.2354 11.6882C19.2291 12.0096 18.9991 12.239 18.6457 12.2468C18.1681 12.2573 17.6906 12.2496 17.2123 12.2496C15.3596 12.2496 13.5069 12.2496 11.6542 12.2496H11.6549Z" fill="#4B1B0B"/>
<path id="Vector_3" d="M11.6266 15.7498C9.34263 15.7498 7.05865 15.7505 4.77538 15.7491C4.38548 15.7491 4.14775 15.5835 4.10287 15.281C4.05589 14.9674 4.17651 14.7316 4.47243 14.6081C4.565 14.5695 4.6765 14.5646 4.77958 14.5639C9.37068 14.5618 13.9618 14.5611 18.5522 14.5639C18.9876 14.5639 19.2408 14.8018 19.2366 15.1814C19.2331 15.5379 18.9834 15.7484 18.548 15.7491C16.2408 15.7505 13.9337 15.7498 11.6266 15.7498Z" fill="#4B1B0B"/>
<path id="Vector_4" d="M11.6274 19.2493C9.3434 19.2493 7.05943 19.25 4.77615 19.2486C4.38555 19.2486 4.14853 19.0837 4.10295 18.7813C4.05597 18.4676 4.17518 18.2318 4.47111 18.1076C4.56367 18.069 4.67517 18.0634 4.77826 18.0634C9.36935 18.0613 13.9604 18.0606 18.5508 18.0634C18.9863 18.0634 19.2395 18.3006 19.2367 18.6802C19.2339 19.0367 18.9835 19.2486 18.5487 19.2486C16.2416 19.25 13.9345 19.2493 11.6274 19.2493Z" fill="#4B1B0B"/>
<path id="Vector_5" d="M11.6534 22.7495C9.37083 22.7495 7.08755 22.7474 4.80498 22.7523C4.51396 22.7523 4.26712 22.685 4.13528 22.4099C3.97259 22.071 4.2026 21.6457 4.57707 21.5755C4.66753 21.5587 4.7629 21.5629 4.85617 21.5629C9.40168 21.5629 13.9465 21.5629 18.492 21.5608C18.7774 21.5608 19.0271 21.6078 19.1687 21.8892C19.3924 22.3327 19.1105 22.7453 18.5748 22.7495C17.41 22.758 16.2452 22.7615 15.0804 22.7643C13.9388 22.7664 12.7964 22.7643 11.6548 22.7643C11.6548 22.7601 11.6548 22.7551 11.6548 22.7509L11.6534 22.7495Z" fill="#4B1B0B"/>
<path id="Vector_6" d="M8.76213 8.75001C7.44659 8.75001 6.13034 8.75071 4.81479 8.75001C4.35407 8.75001 4.08759 8.53949 4.08619 8.18371C4.08478 7.79494 4.34705 7.56407 4.80848 7.56407C7.44027 7.56197 10.0714 7.56267 12.7032 7.56407C13.1485 7.56407 13.4156 7.80758 13.4121 8.19634C13.4086 8.53598 13.1429 8.74931 12.7095 8.75001C11.3939 8.75211 10.0777 8.75071 8.76213 8.75071V8.75001Z" fill="#4B1B0B"/>
</g>
</svg>
