<svg width="18" height="21" viewBox="0 0 18 21" fill="none" xmlns="http://www.w3.org/2000/svg">
<g id="Icons/Records">
<path id="Vector" d="M13.2074 0C13.6003 0.127892 13.8895 0.398411 14.1735 0.68472C15.1029 1.62259 16.0327 2.55994 16.9763 3.4836C17.3381 3.8378 17.5006 4.24253 17.4996 4.7462C17.4938 9.65292 17.4964 14.5596 17.4959 19.4669C17.4959 20.4958 16.9931 21 15.9712 21C11.1289 21 6.28655 21 1.44423 21C0.732633 21 0.206694 20.6384 0.0562755 20.0369C0.0163041 19.8779 0.00262969 19.7085 0.00262969 19.5437C0 13.5165 0 7.49034 0 1.46365C0 0.684193 0.29137 0.296835 1.08869 0H13.2074ZM0.878318 10.4887C0.878318 13.4807 0.878318 16.4722 0.878318 19.4642C0.878318 20.0016 0.989817 20.1158 1.51576 20.1158C6.34124 20.1158 11.1673 20.1158 15.9927 20.1158C16.5003 20.1158 16.617 19.9953 16.617 19.4764C16.617 14.5686 16.6149 9.66081 16.6223 4.75304C16.6223 4.48357 16.5334 4.29147 16.3483 4.10727C15.3679 3.13361 14.3907 2.15679 13.4235 1.16997C13.2247 0.967344 13.0196 0.877873 12.7335 0.878399C8.99198 0.885767 5.25045 0.883136 1.50839 0.883662C0.991395 0.883662 0.877792 0.997343 0.877792 1.51259C0.877792 4.50462 0.877792 7.49613 0.877792 10.4882L0.878318 10.4887Z" fill="#FAF4EB"/>
<path id="Vector_2" d="M8.74118 9.18711C7.05449 9.18711 5.36781 9.18711 3.68112 9.18711C3.61117 9.18711 3.54069 9.19132 3.47127 9.18448C3.24038 9.16132 3.07366 8.9929 3.06419 8.77922C3.05367 8.5387 3.21987 8.33502 3.45812 8.30239C3.52702 8.29292 3.5975 8.2966 3.66745 8.2966C7.05817 8.2966 10.4489 8.2966 13.8396 8.2966C13.8922 8.2966 13.9448 8.2945 13.9969 8.29924C14.262 8.32187 14.4318 8.50712 14.4266 8.76607C14.4218 9.00711 14.2493 9.17921 13.9843 9.185C13.6261 9.1929 13.2679 9.18711 12.9092 9.18711C11.5197 9.18711 10.1302 9.18711 8.74065 9.18711H8.74118Z" fill="#FAF4EB"/>
<path id="Vector_3" d="M8.72001 11.8122C7.00703 11.8122 5.29405 11.8128 3.58159 11.8117C3.28917 11.8117 3.11088 11.6875 3.07722 11.4607C3.04198 11.2254 3.13244 11.0486 3.35439 10.9559C3.42381 10.927 3.50744 10.9233 3.58475 10.9228C7.02807 10.9212 10.4714 10.9207 13.9142 10.9228C14.2408 10.9228 14.4307 11.1012 14.4275 11.3859C14.4249 11.6533 14.2376 11.8112 13.911 11.8117C12.1807 11.8128 10.4504 11.8122 8.72001 11.8122Z" fill="#FAF4EB"/>
<path id="Vector_4" d="M8.7206 14.437C7.00761 14.437 5.29463 14.4375 3.58217 14.4365C3.28923 14.4365 3.11146 14.3128 3.07727 14.0859C3.04204 13.8507 3.13145 13.6738 3.35339 13.5807C3.42282 13.5517 3.50644 13.5475 3.58375 13.5475C7.02707 13.546 10.4704 13.5454 13.9132 13.5475C14.2398 13.5475 14.4297 13.7254 14.4276 14.0102C14.4255 14.2775 14.2377 14.4365 13.9116 14.4365C12.1813 14.4375 10.4509 14.437 8.7206 14.437Z" fill="#FAF4EB"/>
<path id="Vector_5" d="M8.74011 17.0622C7.02818 17.0622 5.31572 17.0606 3.60379 17.0643C3.38553 17.0643 3.2004 17.0138 3.10152 16.8075C2.97951 16.5533 3.15201 16.2343 3.43286 16.1817C3.50071 16.1691 3.57224 16.1722 3.64219 16.1722C7.05132 16.1722 10.4599 16.1722 13.8691 16.1707C14.0831 16.1707 14.2704 16.2059 14.3766 16.417C14.5444 16.7496 14.3329 17.0591 13.9311 17.0622C13.0575 17.0685 12.184 17.0712 11.3104 17.0733C10.4541 17.0748 9.59739 17.0733 8.74116 17.0733C8.74116 17.0701 8.74116 17.0664 8.74116 17.0633L8.74011 17.0622Z" fill="#FAF4EB"/>
<path id="Vector_6" d="M6.57166 6.56232C5.585 6.56232 4.59781 6.56285 3.61115 6.56232C3.26561 6.56232 3.06575 6.40443 3.0647 6.1376C3.06365 5.84603 3.26035 5.67287 3.60642 5.67287C5.58027 5.67129 7.55359 5.67182 9.52744 5.67287C9.86141 5.67287 10.0618 5.8555 10.0592 6.14707C10.0565 6.4018 9.8572 6.5618 9.53217 6.56232C8.54551 6.5639 7.55832 6.56285 6.57166 6.56285V6.56232Z" fill="#FAF4EB"/>
</g>
</svg>
