<svg width="33" height="33" viewBox="0 0 33 33" fill="none" xmlns="http://www.w3.org/2000/svg">
<g id="Layer 1">
<g id="Group">
<g id="Group_2">
<path id="Vector" d="M20.5047 4.25404L4.22503 20.7692C2.05233 22.9733 2.05233 26.5469 4.22503 28.7511C6.39772 30.9552 9.92036 30.9552 12.0931 28.7511L28.3727 12.2359C30.5454 10.0318 30.5454 6.45817 28.3727 4.25404C26.2 2.04991 22.6774 2.04991 20.5047 4.25404Z" stroke="#4B1B0B" stroke-width="1.19979" stroke-miterlimit="10"/>
<path id="Vector 30" d="M17.772 11L21.7149 7" stroke="#4B1B0B" stroke-width="1.2" stroke-linecap="round"/>
<path id="Vector_2" d="M12.3584 12.5083L20.2282 20.4919" stroke="#4B1B0B" stroke-width="1.19979" stroke-miterlimit="10"/>
</g>
<path id="Vector_3" d="M25.5601 30.4001C28.0095 30.4001 29.9951 28.3857 29.9951 25.9008C29.9951 23.416 28.0095 21.4016 25.5601 21.4016C23.1106 21.4016 21.125 23.416 21.125 25.9008C21.125 28.3857 23.1106 30.4001 25.5601 30.4001Z" stroke="#4B1B0B" stroke-width="1.19979" stroke-miterlimit="10"/>
<path id="Vector_4" d="M28.7632 22.4915L22.3472 29.0003" stroke="#4B1B0B" stroke-width="1.19979" stroke-miterlimit="10"/>
</g>
</g>
</svg>
