<svg width="24" height="28" viewBox="0 0 24 28" fill="none" xmlns="http://www.w3.org/2000/svg">
<path d="M17.6098 0C18.1337 0.170522 18.5194 0.531215 18.898 0.91296C20.1371 2.16345 21.377 3.41325 22.635 4.6448C23.1175 5.11706 23.3342 5.6567 23.3328 6.32826C23.325 12.8706 23.3285 19.4128 23.3278 25.9558C23.3278 27.3277 22.6574 28 21.2949 28C14.8385 28 8.38206 28 1.92564 28C0.976844 28 0.275592 27.5179 0.0750339 26.7158C0.0217388 26.5039 0.00350626 26.2779 0.00350626 26.0583C0 18.022 0 9.98712 0 1.95153C0 0.912258 0.388494 0.39578 1.45159 0H17.6098ZM1.17109 13.9849C1.17109 17.9743 1.17109 21.963 1.17109 25.9523C1.17109 26.6688 1.31976 26.8211 2.02101 26.8211C8.45499 26.8211 14.8897 26.8211 21.3237 26.8211C22.0004 26.8211 22.1561 26.6604 22.1561 25.9685C22.1561 19.4248 22.1532 12.8811 22.1631 6.33738C22.1631 5.9781 22.0446 5.72196 21.7977 5.47635C20.4906 4.17814 19.1877 2.87572 17.8981 1.55996C17.633 1.28979 17.3595 1.1705 16.978 1.1712C11.9893 1.18102 7.0006 1.17751 2.01119 1.17822C1.32186 1.17822 1.17039 1.32979 1.17039 2.01679C1.17039 6.00617 1.17039 9.99484 1.17039 13.9842L1.17109 13.9849Z" fill="#4B1B0B"/>
<path d="M11.6548 12.2496C9.40587 12.2496 7.15695 12.2496 4.90804 12.2496C4.81477 12.2496 4.7208 12.2552 4.62824 12.246C4.32039 12.2152 4.09809 11.9906 4.08547 11.7057C4.07144 11.385 4.29304 11.1134 4.61071 11.0699C4.70257 11.0573 4.79654 11.0622 4.8898 11.0622C9.41078 11.0622 13.9317 11.0622 18.4527 11.0622C18.5228 11.0622 18.593 11.0594 18.6624 11.0657C19.0158 11.0959 19.2423 11.3429 19.2353 11.6882C19.229 12.0096 18.999 12.239 18.6456 12.2468C18.168 12.2573 17.6905 12.2496 17.2122 12.2496C15.3595 12.2496 13.5068 12.2496 11.6541 12.2496H11.6548Z" fill="#4B1B0B"/>
<path d="M11.6267 15.7497C9.34275 15.7497 7.05877 15.7504 4.7755 15.749C4.3856 15.749 4.14788 15.5834 4.103 15.281C4.05601 14.9673 4.17663 14.7315 4.47256 14.608C4.56512 14.5694 4.67662 14.5645 4.77971 14.5638C9.3708 14.5617 13.9619 14.561 18.5523 14.5638C18.9878 14.5638 19.2409 14.8017 19.2367 15.1813C19.2332 15.5378 18.9836 15.7483 18.5481 15.749C16.241 15.7504 13.9338 15.7497 11.6267 15.7497Z" fill="#4B1B0B"/>
<path d="M11.6274 19.2494C9.34347 19.2494 7.05949 19.2501 4.77621 19.2487C4.38562 19.2487 4.14859 19.0838 4.10301 18.7814C4.05603 18.4677 4.17524 18.2319 4.47117 18.1077C4.56373 18.0691 4.67523 18.0635 4.77832 18.0635C9.36941 18.0614 13.9605 18.0607 18.5509 18.0635C18.9864 18.0635 19.2395 18.3007 19.2367 18.6803C19.2339 19.0368 18.9836 19.2487 18.5488 19.2487C16.2417 19.2501 13.9346 19.2494 11.6274 19.2494Z" fill="#4B1B0B"/>
<path d="M11.6534 22.7495C9.37083 22.7495 7.08755 22.7474 4.80498 22.7523C4.51396 22.7523 4.26712 22.685 4.13528 22.4099C3.97259 22.071 4.2026 21.6457 4.57707 21.5755C4.66753 21.5587 4.7629 21.5629 4.85617 21.5629C9.40168 21.5629 13.9465 21.5629 18.492 21.5608C18.7774 21.5608 19.0271 21.6078 19.1687 21.8892C19.3924 22.3327 19.1105 22.7453 18.5748 22.7495C17.41 22.758 16.2452 22.7615 15.0804 22.7643C13.9388 22.7664 12.7964 22.7643 11.6548 22.7643C11.6548 22.7601 11.6548 22.7551 11.6548 22.7509L11.6534 22.7495Z" fill="#4B1B0B"/>
<path d="M8.76213 8.74989C7.44659 8.74989 6.13034 8.75059 4.81479 8.74989C4.35407 8.74989 4.08759 8.53937 4.08619 8.18358C4.08478 7.79482 4.34705 7.56395 4.80848 7.56395C7.44027 7.56185 10.0714 7.56255 12.7032 7.56395C13.1485 7.56395 13.4156 7.80745 13.4121 8.19622C13.4086 8.53586 13.1429 8.74918 12.7095 8.74989C11.3939 8.75199 10.0777 8.75059 8.76213 8.75059V8.74989Z" fill="#4B1B0B"/>
</svg>
