<svg width="24" height="24" viewBox="0 0 24 24" fill="none" xmlns="http://www.w3.org/2000/svg">
<g id="QKN3Fd">
<path id="Vector" d="M11.9979 0C18.4833 0.0251085 23.9787 5.14473 24 12.0125C24.0202 18.4642 18.9054 23.9799 12.0173 24C5.33401 24.0182 0.0195239 18.7096 5.0031e-05 12.0471C-0.0187957 5.37134 5.28878 0.0521001 11.9979 0ZM11.9639 22.9655C17.9795 22.9473 22.9089 18.2363 22.956 12.0904C23.0025 5.99842 18.1799 1.13302 12.099 1.0533C6.04638 0.972954 1.08117 5.83961 1.0441 11.9567C1.00704 18.0128 5.81206 22.8958 11.9639 22.9649V22.9655Z" fill="#4B1B0B"/>
<path id="Vector_2" d="M11.4833 11.4978V11.0854C11.4833 9.37426 11.4827 7.66311 11.4846 5.95197C11.4846 5.81764 11.4739 5.67012 11.5229 5.55086C11.6203 5.31421 11.8194 5.20813 12.0795 5.24642C12.3251 5.2822 12.4809 5.42406 12.5041 5.67264C12.5242 5.88982 12.5173 6.11015 12.5173 6.32922C12.5179 7.92549 12.5173 9.52177 12.5173 11.118C12.5173 11.2304 12.5173 11.3428 12.5173 11.4978C12.6587 11.4978 12.7692 11.4978 12.8804 11.4978C14.5928 11.4978 16.3053 11.4978 18.0177 11.4978C18.1327 11.4978 18.2489 11.494 18.3614 11.5104C18.6158 11.5461 18.7879 11.7545 18.7741 12.0119C18.7596 12.2818 18.6315 12.4726 18.3488 12.5065C18.1635 12.5285 17.9738 12.5185 17.7859 12.5185C16.157 12.5191 14.5281 12.5185 12.8992 12.5185H12.5173V12.9108C12.5173 14.6012 12.5173 16.291 12.5167 17.9814C12.5167 18.1064 12.5236 18.2344 12.4997 18.3556C12.4463 18.6223 12.2849 18.7761 11.9997 18.7755C11.7151 18.7755 11.5455 18.6217 11.5028 18.3537C11.472 18.1597 11.4839 17.9582 11.4839 17.7605C11.4827 16.1435 11.4833 14.5259 11.4833 12.9089V12.5185C11.3401 12.5185 11.2201 12.5185 11.0995 12.5185C9.35563 12.5185 7.6124 12.5172 5.86855 12.5197C5.62858 12.5197 5.4106 12.4952 5.28433 12.2492C5.11346 11.9165 5.30066 11.548 5.67192 11.5053C5.77495 11.4934 5.88048 11.4972 5.98476 11.4972C7.68653 11.4972 9.3883 11.4972 11.0907 11.4972H11.4833V11.4978Z" fill="#4B1B0B"/>
</g>
</svg>
