<svg width="13" height="14" viewBox="0 0 13 14" fill="none" xmlns="http://www.w3.org/2000/svg">
<g id="Icons/Chat History">
<g id="Group 91">
<path id="Vector" d="M9.09708 7.48123L9.09643 7.48142C9.03699 7.49891 8.97453 7.49873 8.92964 7.4986C8.92588 7.49858 8.92224 7.49857 8.91874 7.49857H8.90929H8.89984H8.89039H8.88094H8.87149H8.86204H8.85259H8.84314H8.83369H8.82424H8.81479H8.80534H8.79589H8.78644H8.77699H8.76754H8.75809H8.74864H8.73919H8.72973H8.72028H8.71083H8.70138H8.69193H8.68248H8.67303H8.66358H8.65413H8.64468H8.63523H8.62578H8.61633H8.60688H8.59743H8.58798H8.57853H8.56908H8.55963H8.55017H8.54072H8.53127H8.52182H8.51237H8.50292H8.49347H8.48402H8.47457H8.46512H8.45567H8.44622H8.43676H8.42731H8.41786H8.40841H8.39896H8.38951H8.38006H8.37061H8.36116H8.35171H8.34226H8.3328H8.32335H8.3139H8.30445H8.295H8.28555H8.2761H8.26665H8.2572H8.24774H8.23829H8.22884H8.21939H8.20994H8.20049H8.19104H8.18159H8.17213H8.16268H8.15323H8.14378H8.13433H8.12488H8.11543H8.10598H8.09652H8.08707H8.07762H8.06817H8.05872H8.04927H8.03982H8.03036H8.02091H8.01146H8.00201H7.99256H7.98311H7.97365H7.9642H7.95475H7.9453H7.93585H7.9264H7.91695H7.90749H7.89804H7.88859H7.87914H7.86969H7.86024H7.85078H7.84133H7.83188H7.82243H7.81298H7.80353H7.79407H7.78462H7.77517H7.76572H7.75627H7.74681H7.73736H7.72791H7.71846H7.70901H7.69956H7.6901H7.68065H7.6712H7.66175H7.6523H7.64284H7.63339H7.62394H7.61449H7.60504H7.59558H7.58613H7.57668H7.56723H7.55778H7.54833H7.53887H7.52942H7.51997H7.51052H7.50107H7.49161H7.48216H7.47271H7.46326H7.4538H7.44435H7.4349H7.42545H7.416H7.40654H7.39709H7.38764H7.37819H7.36874H7.35928H7.34983H7.34038H7.33093H7.32148H7.31202H7.30257H7.29312H7.28367H7.27421H7.26476H7.25531H7.24586H7.23641H7.22695H7.2175H7.20805H7.1986H7.18914H7.17969H7.17024H7.16079H7.15134H7.14188H7.13243H7.12298H7.11353H7.10407H7.09462H7.08517H7.07572H7.06627H7.05681H7.04736H7.03791H7.02846H7.019H7.00955H7.0001H6.99065H6.98119H6.97174H6.96229H6.95284H6.94338H6.93393H6.92448H6.91503H6.90558H6.89612H6.88667H6.87722H6.86777H6.85831H6.84886H6.83941H6.82996H6.8205H6.81105H6.8016H6.79215H6.78269H6.77324H6.76379H6.75434H6.74488H6.73543H6.72598H6.71653H6.70708H6.69762H6.68817H6.67872H6.66927H6.65981H6.65036H6.64091H6.63146H6.622H6.61255H6.6031H6.59365H6.58419H6.57474H6.56529H6.55584H6.54638H6.53693H6.52748H6.51803H6.50857H6.49912H6.48967H6.48022H6.47076H6.46131H6.45186H6.44241H6.43295H6.4235H6.41405H6.4046H6.39515H6.38569H6.37624H6.36679H6.35734H6.34788H6.33843H6.32898H6.31953H6.31007H6.30062H6.29117H6.28172H6.27226H6.26281H6.25336H6.24391H6.23445H6.225H6.21555H6.2061H6.19664H6.18719H6.17774H6.16829H6.15883H6.14938H6.13993H6.13048H6.12103H6.11157H6.10212H6.09267H6.08322H6.07376H6.06431H6.05486H6.04541H6.03595H6.0265H6.01705H6.0076H5.99814H5.98869H5.97924H5.96979H5.96034H5.95088H5.94143H5.93198H5.92253H5.91307H5.90362H5.89417H5.88472H5.87526H5.86581H5.85636H5.84691H5.83746H5.828H5.81855H5.8091H5.79965H5.79019H5.78074H5.77129H5.76184H5.75239H5.74293H5.73348H5.72403H5.71458H5.70512H5.69567H5.68622H5.67677H5.66732H5.65786H5.64841H5.63896H5.62951H5.62006H5.6106H5.60115H5.5917H5.58225H5.5728H5.56334H5.55389H5.54444H5.53499H5.52553H5.51608H5.50663H5.49718H5.48773H5.47827H5.46882H5.45937H5.44992H5.44047H5.43101H5.42156H5.41211H5.40266H5.39321H5.38376H5.3743H5.36485H5.3554H5.34595H5.3365H5.32704H5.31759H5.30814H5.29869H5.28924H5.27978H5.27033H5.26088H5.25143H5.24198H5.23253H5.22307H5.21362H5.20417H5.19472H5.18527H5.17581H5.16636H5.15691H5.14746H5.13801H5.12856H5.1191H5.10965H5.1002H5.09075H5.0813H5.07185H5.0624H5.05294H5.04349H5.03404H5.02459H5.01514H5.00569H4.99623H4.98678H4.97733H4.96788H4.95843H4.94898H4.93953H4.93007H4.92062H4.91117H4.90172H4.89227H4.88282H4.87337H4.86391H4.85446H4.84501H4.83556H4.82611H4.81666H4.80721H4.79776H4.7883H4.77885H4.7694H4.75995H4.7505H4.74105H4.7316H4.72215H4.71269H4.70324H4.69379H4.68434H4.67489H4.66544H4.65599H4.64654H4.63709H4.62764H4.61818H4.60873H4.59928H4.58983H4.58038H4.57093H4.56148H4.55203H4.54258H4.53313H4.52368H4.51422H4.50477H4.49532H4.48587H4.47642H4.46697H4.45752H4.44807H4.43862H4.42917H4.41972H4.41027H4.40082H4.39137H4.38191H4.37246H4.36301H4.35356H4.34411H4.33466H4.32521H4.31576H4.30631H4.29686H4.28741H4.27796H4.26851H4.25906H4.24961H4.24016H4.23071H4.22126H4.21181H4.20236H4.19291H4.18346H4.17401H4.16456H4.15511H4.14566H4.13621H4.12676H4.1173H4.10785H4.0984H4.08895H4.0795C4.076 7.49857 4.07236 7.49858 4.0686 7.4986C4.02374 7.49873 3.96132 7.49891 3.90192 7.48145C3.90188 7.48144 3.90185 7.48143 3.90181 7.48142L9.09708 7.48123ZM9.09708 7.48123C9.16708 7.4601 9.23201 7.42129 9.27837 7.36052M9.09708 7.48123L9.27837 7.36052M9.27837 7.36052C9.32535 7.29894 9.34759 7.22219 9.34383 7.13634L9.27837 7.36052ZM3.75267 7.14157C3.7576 7.00513 3.81919 6.90327 3.94812 6.87897L3.92948 6.78072C3.9295 6.78072 3.92952 6.78071 3.92954 6.78071L3.75267 7.14157Z" fill="#7C442D" stroke="#7C442D" stroke-width="0.2"/>
<path id="Vector_2" d="M7.69164 4.90847L7.69132 4.90841C7.64278 4.89937 7.5929 4.89977 7.55445 4.90008C7.5479 4.90013 7.54169 4.90018 7.53587 4.90018H7.53251H7.52915H7.52579H7.52243H7.51908H7.51572H7.51236H7.509H7.50564H7.50228H7.49893H7.49557H7.49221H7.48885H7.48549H7.48214H7.47878H7.47542H7.47206H7.4687H7.46534H7.46199H7.45863H7.45527H7.45191H7.44855H7.4452H7.44184H7.43848H7.43512H7.43176H7.42841H7.42505H7.42169H7.41833H7.41497H7.41162H7.40826H7.4049H7.40154H7.39818H7.39483H7.39147H7.38811H7.38475H7.3814H7.37804H7.37468H7.37132H7.36797H7.36461H7.36125H7.35789H7.35453H7.35118H7.34782H7.34446H7.3411H7.33775H7.33439H7.33103H7.32767H7.32432H7.32096H7.3176H7.31424H7.31089H7.30753H7.30417H7.30081H7.29746H7.2941H7.29074H7.28739H7.28403H7.28067H7.27731H7.27396H7.2706H7.26724H7.26388H7.26053H7.25717H7.25381H7.25046H7.2471H7.24374H7.24038H7.23703H7.23367H7.23031H7.22696H7.2236H7.22024H7.21688H7.21353H7.21017H7.20681H7.20346H7.2001H7.19674H7.19339H7.19003H7.18667H7.18331H7.17996H7.1766H7.17324H7.16989H7.16653H7.16317H7.15982H7.15646H7.1531H7.14975H7.14639H7.14303H7.13968H7.13632H7.13296H7.1296H7.12625H7.12289H7.11953H7.11618H7.11282H7.10946H7.10611H7.10275H7.09939H7.09604H7.09268H7.08932H7.08597H7.08261H7.07925H7.0759H7.07254H7.06918H7.06583H7.06247H7.05911H7.05576H7.0524H7.04904H7.04569H7.04233H7.03898H7.03562H7.03226H7.02891H7.02555H7.02219H7.01884H7.01548H7.01212H7.00877H7.00541H7.00205H6.9987H6.99534H6.99198H6.98863H6.98527H6.98192H6.97856H6.9752H6.97185H6.96849H6.96513H6.96178H6.95842H6.95506H6.95171H6.94835H6.945H6.94164H6.93828H6.93493H6.93157H6.92821H6.92486H6.9215H6.91814H6.91479H6.91143H6.90808H6.90472H6.90136H6.89801H6.89465H6.89129H6.88794H6.88458H6.88123H6.87787H6.87451H6.87116H6.8678H6.86444H6.86109H6.85773H6.85438H6.85102H6.84766H6.84431H6.84095H6.83759H6.83424H6.83088H6.82753H6.82417H6.82081H6.81746H6.8141H6.81075H6.80739H6.80403H6.80068H6.79732H6.79396H6.79061H6.78725H6.7839H6.78054H6.77718H6.77383H6.77047H6.76712H6.76376H6.7604H6.75705H6.75369H6.75033H6.74698H6.74362H6.74027H6.73691H6.73355H6.7302H6.72684H6.72349H6.72013H6.71677H6.71342H6.71006H6.70671H6.70335H6.69999H6.69664H6.69328H6.68992H6.68657H6.68321H6.67986H6.6765H6.67314H6.66979H6.66643H6.66308H6.65972H6.65636H6.65301H6.64965H6.6463H6.64294H6.63958H6.63623H6.63287H6.62951H6.62616H6.6228H6.61945H6.61609H6.61273H6.60938H6.60602H6.60267H6.59931H6.59595H6.5926H6.58924H6.58589H6.58253H6.57917H6.57582H6.57246H6.5691H6.56575H6.56239H6.55904H6.55568H6.55232H6.54897H6.54561H6.54226H6.5389H6.53554H6.53219H6.52883H6.52547H6.52212H6.51876H6.51541H6.51205H6.50869H6.50534H6.50198H6.49863H6.49527H6.49191H6.48856H6.4852H6.48184H6.47849H6.47513H6.47178H6.46842H6.46506H6.46171H6.45835H6.45499H6.45164H6.44828H6.44493H6.44157H6.43821H6.43486H6.4315H6.42814H6.42479H6.42143H6.41807H6.41472H6.41136H6.40801H6.40465H6.40129H6.39794H6.39458H6.39122H6.38787H6.38451H6.38115H6.3778H6.37444H6.37109H6.36773H6.36437H6.36102H6.35766H6.3543H6.35095H6.34759H6.34423H6.34088H6.33752H6.33416H6.33081H6.32745H6.3241H6.32074H6.31738H6.31403H6.31067H6.30731H6.30396H6.3006H6.29724H6.29389H6.29053H6.28717H6.28382H6.28046H6.2771H6.27375H6.27039H6.26703H6.26368H6.26032H6.25696H6.25361H6.25025H6.24689H6.24354H6.24018H6.23682H6.23347H6.23011H6.22675H6.2234H6.22004H6.21668H6.21333H6.20997H6.20661H6.20326H6.1999H6.19654H6.19318H6.18983H6.18647H6.18311H6.17976H6.1764H6.17304H6.16969H6.16633H6.16297H6.15962H6.15626H6.1529H6.14954H6.14619H6.14283H6.13947H6.13612H6.13276H6.1294H6.12605H6.12269H6.11933H6.11597H6.11262H6.10926H6.1059H6.10255H6.09919H6.09583H6.09247H6.08912H6.08576H6.0824H6.07904H6.07569H6.07233H6.06897H6.06562H6.06226H6.0589H6.05554H6.05219H6.04883H6.04547H6.04211H6.03876H6.0354H6.03204H6.02868H6.02533H6.02197H6.01861H6.01525H6.0119H6.00854H6.00518H6.00182H5.99847H5.99511H5.99175H5.98839H5.98504H5.98168H5.97832H5.97496H5.9716H5.96825H5.96489H5.96153H5.95817H5.95482H5.95146H5.9481H5.94474H5.94138H5.93803H5.93467H5.93131H5.92795H5.9246H5.92124H5.91788H5.91452H5.91116H5.90781H5.90445H5.90109H5.89773H5.89437H5.89101H5.88766H5.8843H5.88094H5.87758H5.87422H5.87087H5.86751H5.86415H5.86079H5.85743H5.85407H5.85072H5.84736H5.844H5.84064H5.83728H5.83392H5.83057H5.82721H5.82385H5.82049H5.81713C5.52844 4.90018 5.23975 4.90041 4.95111 4.90064H4.95111C4.66246 4.90088 4.37385 4.90111 4.08526 4.90111C4.07944 4.90111 4.07322 4.90106 4.06668 4.90101C4.02823 4.9007 3.97835 4.9003 3.92981 4.90934L3.92981 4.90934L3.92948 4.90941C3.84138 4.92612 3.77081 4.97106 3.72293 5.03861C3.67652 5.10407 3.65619 5.18385 3.65276 5.26512L3.65276 5.26512L3.65275 5.26559C3.64953 5.35161 3.67193 5.42836 3.71922 5.48978C3.7659 5.55043 3.83105 5.58867 3.9011 5.6092L3.9011 5.60922L3.90274 5.60967C3.96356 5.62638 4.02692 5.62635 4.07387 5.62633C4.07549 5.62633 4.0771 5.62633 4.07869 5.62633H4.08546H4.09223H4.099H4.10577H4.11254H4.11931H4.12608H4.13285H4.13961H4.14638H4.15315H4.15992H4.16669H4.17346H4.18023H4.187H4.19377H4.20054H4.20731H4.21408H4.22085H4.22762H4.23439H4.24116H4.24793H4.2547H4.26147H4.26824H4.27501H4.28178H4.28855H4.29532H4.30208H4.30885H4.31562H4.32239H4.32916H4.33593H4.3427H4.34947H4.35624H4.36301H4.36978H4.37655H4.38332H4.39008H4.39685H4.40362H4.41039H4.41716H4.42393H4.4307H4.43747H4.44424H4.45101H4.45778H4.46454H4.47131H4.47808H4.48485H4.49162H4.49839H4.50516H4.51193H4.5187H4.52546H4.53223H4.539H4.54577H4.55254H4.55931H4.56608H4.57285H4.57961H4.58638H4.59315H4.59992H4.60669H4.61346H4.62023H4.62699H4.63376H4.64053H4.6473H4.65407H4.66084H4.66761H4.67437H4.68114H4.68791H4.69468H4.70145H4.70822H4.71498H4.72175H4.72852H4.73529H4.74206H4.74883H4.75559H4.76236H4.76913H4.7759H4.78267H4.78943H4.7962H4.80297H4.80974H4.81651H4.82328H4.83004H4.83681H4.84358H4.85035H4.85712H4.86388H4.87065H4.87742H4.88419H4.89096H4.89772H4.90449H4.91126H4.91803H4.9248H4.93156H4.93833H4.9451H4.95187H4.95863H4.9654H4.97217H4.97894H4.98571H4.99247H4.99924H5.00601H5.01278H5.01954H5.02631H5.03308H5.03985H5.04662H5.05338H5.06015H5.06692H5.07369H5.08045H5.08722H5.09399H5.10076H5.10752H5.11429H5.12106H5.12783H5.13459H5.14136H5.14813H5.1549H5.16166H5.16843H5.1752H5.18197H5.18873H5.1955H5.20227H5.20903H5.2158H5.22257H5.22934H5.2361H5.24287H5.24964H5.25641H5.26317H5.26994H5.27671H5.28347H5.29024H5.29701H5.30378H5.31054H5.31731H5.32408H5.33084H5.33761H5.34438H5.35115H5.35791H5.36468H5.37145H5.37821H5.38498H5.39175H5.39852H5.40528H5.41205H5.41882H5.42558H5.43235H5.43912H5.44588H5.45265H5.45942H5.46618H5.47295H5.47972H5.48648H5.49325H5.50002H5.50679H5.51355H5.52032H5.52709H5.53385H5.54062H5.54739H5.55415H5.56092H5.56769H5.57445H5.58122H5.58799H5.59475H5.60152H5.60829H5.61505H5.62182H5.62859H5.63535H5.64212H5.64889H5.65565H5.66242H5.66919H5.67595H5.68272H5.68949H5.69625H5.70302H5.70978H5.71655H5.72332H5.73008H5.73685H5.74362H5.75038H5.75715H5.76392H5.77068H5.77745H5.78422H5.79098H5.79775H5.80451H5.81128H5.81805H5.82481H5.83158H5.83835H5.84511H5.85188H5.85865H5.86541H5.87218H5.87894H5.88571H5.89248H5.89924H5.90601H5.91278H5.91954H5.92631H5.93307H5.93984H5.94661H5.95337H5.96014H5.9669H5.97367H5.98044H5.9872H5.99397H6.00074H6.0075H6.01427H6.02103H6.0278H6.03457H6.04133H6.0481H6.05486H6.06163H6.0684H6.07516H6.08193H6.08869H6.09546H6.10223H6.10899H6.11576H6.12252H6.12929H6.13606H6.14282H6.14959H6.15635H6.16312H6.16988H6.17665H6.18342H6.19018H6.19695H6.20371H6.21048H6.21725H6.22401H6.23078H6.23754H6.24431H6.25108H6.25784H6.26461H6.27137H6.27814H6.2849H6.29167H6.29844H6.3052H6.31197H6.31873H6.3255H6.33226H6.33903H6.3458H6.35256H6.35933H6.36609H6.37286H6.37962H6.38639H6.39316H6.39992H6.40669H6.41345H6.42022H6.42698H6.43375H6.44052H6.44728H6.45405H6.46081H6.46758H6.47434H6.48111H6.48787H6.49464H6.50141H6.50817H6.51494H6.5217H6.52847H6.53523H6.542H6.54876H6.55553H6.5623H6.56906H6.57583H6.58259H6.58936H6.59612H6.60289H6.60965H6.61642H6.62319H6.62995H6.63672H6.64348H6.65025H6.65701H6.66378H6.67054H6.67731H6.68407H6.69084H6.69761H6.70437H6.71114H6.7179H6.72467H6.73143H6.7382H6.74496H6.75173H6.75849H6.76526H6.77202H6.77879H6.78556H6.79232H6.79909H6.80585H6.81262H6.81938H6.82615H6.83291H6.83968H6.84644H6.85321H6.85997H6.86674H6.8735H6.88027H6.88704H6.8938H6.90057H6.90733H6.9141H6.92086H6.92763H6.93439H6.94116H6.94792H6.95469H6.96145H6.96822H6.97498H6.98175H6.98851H6.99528H7.00205H7.00881H7.01558H7.02234H7.02911H7.03587H7.04264H7.0494H7.05617H7.06293H7.0697H7.07646H7.08323H7.08999H7.09676H7.10352H7.11029H7.11705H7.12382H7.13058H7.13735H7.14412H7.15088H7.15765H7.16441H7.17118H7.17794H7.18471H7.19147H7.19824H7.205H7.21177H7.21853H7.2253H7.23206H7.23883H7.24559H7.25236H7.25912H7.26589H7.27265H7.27942H7.28618H7.29295H7.29971H7.30648H7.31324H7.32001H7.32678H7.33354H7.34031H7.34707H7.35384H7.3606H7.36737H7.37413H7.3809H7.38766H7.39443H7.40119H7.40796H7.41472H7.42149H7.42825H7.43502H7.44178H7.44855H7.45531H7.46208H7.46884H7.47561H7.48237H7.48914H7.4959H7.50267H7.50943H7.5162H7.52296H7.52973H7.53649H7.54326C7.54676 5.62633 7.5504 5.62634 7.55416 5.62635C7.59905 5.62648 7.66152 5.62667 7.72095 5.60917L7.72095 5.60918L7.7216 5.60898C7.79163 5.58785 7.85647 5.54905 7.9029 5.48839C7.94992 5.42696 7.97243 5.35037 7.9692 5.26463L7.96918 5.26421C7.96576 5.18232 7.94515 5.10239 7.89836 5.03698C7.85014 4.96956 7.77938 4.92511 7.69164 4.90847ZM3.75268 5.26933C3.75842 5.13288 3.82001 5.03195 3.94812 5.00765L7.67301 5.00672C7.80111 5.03102 7.86352 5.13101 7.86927 5.26839C7.8742 5.39923 7.80111 5.48053 7.69272 5.51324C7.64788 5.52644 7.59942 5.52638 7.5521 5.52633C7.54915 5.52633 7.5462 5.52633 7.54326 5.52633H4.07869H4.07869C4.02859 5.52633 3.97686 5.52633 3.92923 5.51324C3.82083 5.48147 3.74775 5.4011 3.75268 5.26933Z" fill="#7C442D" stroke="#7C442D" stroke-width="0.2"/>
<g id="Subtract">
<mask id="path-3-outside-1_1221_892" maskUnits="userSpaceOnUse" x="0" y="0" width="13" height="14" fill="black">
<rect fill="white" width="13" height="14"/>
<path fill-rule="evenodd" clip-rule="evenodd" d="M11.9592 6.82025C11.9721 6.73508 11.985 6.64993 11.9992 6.56515H12V5.87639C11.9973 5.86144 11.9941 5.84649 11.9909 5.83153C11.9845 5.80163 11.9781 5.77172 11.9754 5.74182C11.9228 5.16427 11.7734 4.62036 11.5311 4.11104C10.8692 2.71856 9.81401 1.8728 8.52804 1.37562C7.44325 0.95601 6.33219 0.897134 5.20717 1.1532C4.09365 1.4074 3.10987 1.95317 2.29279 2.85594C0.84915 4.45215 0.59294 6.75206 1.63338 8.66881C1.86906 9.10244 2.15976 9.48187 2.50466 9.81363C2.50121 9.82388 2.49789 9.83382 2.49466 9.84351C2.48404 9.87538 2.4743 9.90459 2.4636 9.93325C2.14005 10.8183 1.8165 11.7024 1.49214 12.5864C1.44615 12.7117 1.43547 12.8294 1.53237 12.9303C1.62435 13.0257 1.72371 13.0145 1.82389 12.949C2.0386 12.81 2.25326 12.6709 2.46792 12.5318C3.15968 12.0836 3.85153 11.6353 4.5453 11.1902C4.60114 11.1547 4.68654 11.1416 4.74813 11.1594C5.23673 11.3014 5.7278 11.4005 6.23365 11.4304C6.93166 11.4715 7.61488 11.3762 8.28086 11.1603C9.15953 10.8753 9.95279 10.3959 10.6204 9.67439C11.2174 9.03048 11.6576 8.2735 11.8645 7.35858C11.9047 7.18142 11.932 7.0008 11.9592 6.82025ZM2.21916 12.0903C2.20388 12.0994 2.18492 12.1106 2.15976 12.1257H2.15894C2.28786 11.7678 2.40201 11.4519 2.51779 11.136C2.61197 10.8787 2.70681 10.6217 2.80168 10.3646C2.85735 10.2137 2.91305 10.0628 2.96862 9.91176C3.04664 9.69962 3.02775 9.63327 2.8709 9.48094C1.84689 8.49125 1.3435 7.2427 1.49296 5.70911C1.59643 4.6484 2.06861 3.78862 2.7584 3.08117C3.60258 2.21484 4.60524 1.74944 5.7237 1.58683C6.65656 1.45132 7.57054 1.5429 8.45988 1.89803C9.31473 2.24008 10.0604 2.7709 10.6492 3.56433C11.7356 5.02782 11.8489 6.97635 10.8692 8.55013C10.1162 9.75943 9.05031 10.4267 7.80704 10.7557C6.82408 11.0155 5.8403 10.9725 4.87295 10.6529C4.64712 10.579 4.47632 10.6164 4.28252 10.7463C3.79393 11.0736 3.30093 11.3924 2.80805 11.7111C2.62827 11.8274 2.44851 11.9436 2.26898 12.0603C2.25502 12.069 2.24079 12.0775 2.21916 12.0903Z"/>
</mask>
<path fill-rule="evenodd" clip-rule="evenodd" d="M11.9592 6.82025C11.9721 6.73508 11.985 6.64993 11.9992 6.56515H12V5.87639C11.9973 5.86144 11.9941 5.84649 11.9909 5.83153C11.9845 5.80163 11.9781 5.77172 11.9754 5.74182C11.9228 5.16427 11.7734 4.62036 11.5311 4.11104C10.8692 2.71856 9.81401 1.8728 8.52804 1.37562C7.44325 0.95601 6.33219 0.897134 5.20717 1.1532C4.09365 1.4074 3.10987 1.95317 2.29279 2.85594C0.84915 4.45215 0.59294 6.75206 1.63338 8.66881C1.86906 9.10244 2.15976 9.48187 2.50466 9.81363C2.50121 9.82388 2.49789 9.83382 2.49466 9.84351C2.48404 9.87538 2.4743 9.90459 2.4636 9.93325C2.14005 10.8183 1.8165 11.7024 1.49214 12.5864C1.44615 12.7117 1.43547 12.8294 1.53237 12.9303C1.62435 13.0257 1.72371 13.0145 1.82389 12.949C2.0386 12.81 2.25326 12.6709 2.46792 12.5318C3.15968 12.0836 3.85153 11.6353 4.5453 11.1902C4.60114 11.1547 4.68654 11.1416 4.74813 11.1594C5.23673 11.3014 5.7278 11.4005 6.23365 11.4304C6.93166 11.4715 7.61488 11.3762 8.28086 11.1603C9.15953 10.8753 9.95279 10.3959 10.6204 9.67439C11.2174 9.03048 11.6576 8.2735 11.8645 7.35858C11.9047 7.18142 11.932 7.0008 11.9592 6.82025ZM2.21916 12.0903C2.20388 12.0994 2.18492 12.1106 2.15976 12.1257H2.15894C2.28786 11.7678 2.40201 11.4519 2.51779 11.136C2.61197 10.8787 2.70681 10.6217 2.80168 10.3646C2.85735 10.2137 2.91305 10.0628 2.96862 9.91176C3.04664 9.69962 3.02775 9.63327 2.8709 9.48094C1.84689 8.49125 1.3435 7.2427 1.49296 5.70911C1.59643 4.6484 2.06861 3.78862 2.7584 3.08117C3.60258 2.21484 4.60524 1.74944 5.7237 1.58683C6.65656 1.45132 7.57054 1.5429 8.45988 1.89803C9.31473 2.24008 10.0604 2.7709 10.6492 3.56433C11.7356 5.02782 11.8489 6.97635 10.8692 8.55013C10.1162 9.75943 9.05031 10.4267 7.80704 10.7557C6.82408 11.0155 5.8403 10.9725 4.87295 10.6529C4.64712 10.579 4.47632 10.6164 4.28252 10.7463C3.79393 11.0736 3.30093 11.3924 2.80805 11.7111C2.62827 11.8274 2.44851 11.9436 2.26898 12.0603C2.25502 12.069 2.24079 12.0775 2.21916 12.0903Z" fill="#7C442D"/>
<path d="M11.9992 6.56515V6.26515H11.7453L11.7033 6.51555L11.9992 6.56515ZM11.9592 6.82025L11.6626 6.77544L11.6626 6.77544L11.9592 6.82025ZM12 6.56515V6.86515H12.3V6.56515H12ZM12 5.87639H12.3V5.84916L12.2951 5.82238L12 5.87639ZM11.9909 5.83153L11.6975 5.89419L11.6975 5.8942L11.9909 5.83153ZM11.9754 5.74182L11.6766 5.769L11.6766 5.76917L11.9754 5.74182ZM11.5311 4.11104L11.2602 4.23982L11.2602 4.23989L11.5311 4.11104ZM8.52804 1.37562L8.41981 1.65542L8.41986 1.65544L8.52804 1.37562ZM5.20717 1.1532L5.14059 0.86068L5.1404 0.860723L5.20717 1.1532ZM2.29279 2.85594L2.07036 2.65463L2.07029 2.65471L2.29279 2.85594ZM1.63338 8.66881L1.36972 8.81193L1.3698 8.81207L1.63338 8.66881ZM2.50466 9.81363L2.78899 9.90932L2.84961 9.72918L2.71263 9.59742L2.50466 9.81363ZM2.49466 9.84351L2.21006 9.74863L2.21006 9.74864L2.49466 9.84351ZM2.4636 9.93325L2.18255 9.82829L2.18183 9.83025L2.4636 9.93325ZM1.49214 12.5864L1.77375 12.6898L1.77378 12.6898L1.49214 12.5864ZM1.53237 12.9303L1.31596 13.1381L1.31648 13.1386L1.53237 12.9303ZM1.82389 12.949L1.66086 12.6972L1.65987 12.6978L1.82389 12.949ZM2.46792 12.5318L2.63106 12.7836L2.63106 12.7836L2.46792 12.5318ZM4.5453 11.1902L4.3843 10.9371L4.38331 10.9377L4.5453 11.1902ZM4.74813 11.1594L4.83188 10.8713L4.83124 10.8711L4.74813 11.1594ZM6.23365 11.4304L6.21595 11.7299L6.21601 11.7299L6.23365 11.4304ZM8.28086 11.1603L8.37337 11.4457L8.37343 11.4457L8.28086 11.1603ZM10.6204 9.67439L10.4004 9.47042L10.4002 9.47063L10.6204 9.67439ZM11.8645 7.35858L11.5719 7.29224L11.5719 7.2924L11.8645 7.35858ZM2.15976 12.1257V12.4257H2.24283L2.31406 12.383L2.15976 12.1257ZM2.21916 12.0903L2.06616 11.8323L2.06616 11.8323L2.21916 12.0903ZM2.15894 12.1257L1.87669 12.024L1.73201 12.4257H2.15894V12.1257ZM2.51779 11.136L2.79947 11.2393L2.79952 11.2391L2.51779 11.136ZM2.80168 10.3646L2.52023 10.2607L2.80168 10.3646ZM2.96862 9.91176L3.25017 10.0154L3.25019 10.0153L2.96862 9.91176ZM2.8709 9.48094L3.07992 9.26573L3.07939 9.26522L2.8709 9.48094ZM1.49296 5.70911L1.19437 5.67998L1.19437 5.68001L1.49296 5.70911ZM2.7584 3.08117L2.9732 3.2906L2.97326 3.29053L2.7584 3.08117ZM5.7237 1.58683L5.68057 1.28994L5.68053 1.28995L5.7237 1.58683ZM8.45988 1.89803L8.57132 1.6195L8.57113 1.61942L8.45988 1.89803ZM10.6492 3.56433L10.4082 3.7431L10.4083 3.74314L10.6492 3.56433ZM10.8692 8.55013L11.1239 8.7087L11.1239 8.70867L10.8692 8.55013ZM7.80704 10.7557L7.8837 11.0457L7.88377 11.0457L7.80704 10.7557ZM4.87295 10.6529L4.96707 10.368L4.96617 10.3677L4.87295 10.6529ZM4.28252 10.7463L4.44949 10.9955L4.44955 10.9955L4.28252 10.7463ZM2.80805 11.7111L2.97095 11.9631H2.97095L2.80805 11.7111ZM2.26898 12.0603L2.42852 12.3144L2.43242 12.3118L2.26898 12.0603ZM11.7033 6.51555C11.6886 6.60311 11.6754 6.69067 11.6626 6.77544L12.2559 6.86506C12.2688 6.77949 12.2813 6.69674 12.295 6.61476L11.7033 6.51555ZM12 6.26515H11.9992V6.86515H12V6.26515ZM11.7 5.87639V6.56515H12.3V5.87639H11.7ZM11.6975 5.8942C11.7008 5.90989 11.7031 5.92052 11.7049 5.93041L12.2951 5.82238C12.2914 5.80236 12.2873 5.78308 12.2843 5.76887L11.6975 5.8942ZM11.6766 5.76917C11.6813 5.81994 11.6918 5.86747 11.6975 5.89419L12.2843 5.76888C12.2772 5.73579 12.2749 5.72351 12.2741 5.71447L11.6766 5.76917ZM11.2602 4.23989C11.4871 4.71693 11.6272 5.22638 11.6766 5.769L12.2741 5.71463C12.2184 5.10215 12.0596 4.52379 11.802 3.98218L11.2602 4.23989ZM8.41986 1.65544C9.6446 2.12894 10.6357 2.92607 11.2602 4.23982L11.8021 3.98225C11.1028 2.51106 9.98342 1.61666 8.63622 1.09581L8.41986 1.65544ZM5.27375 1.44572C6.34437 1.20203 7.39429 1.25873 8.41981 1.65542L8.63627 1.09582C7.49222 0.65329 6.32002 0.592232 5.14059 0.86068L5.27375 1.44572ZM2.51522 3.05725C3.28915 2.20215 4.21769 1.6868 5.27394 1.44568L5.1404 0.860723C3.9696 1.12799 2.93059 1.70419 2.07036 2.65463L2.51522 3.05725ZM1.89704 8.5257C0.915789 6.71798 1.1592 4.55657 2.51529 3.05717L2.07029 2.65471C0.539099 4.34772 0.270091 6.78614 1.36972 8.81193L1.89704 8.5257ZM2.71263 9.59742C2.38989 9.28698 2.11795 8.93215 1.89696 8.52556L1.3698 8.81207C1.62017 9.27273 1.92962 9.67676 2.29668 10.0298L2.71263 9.59742ZM2.77926 9.93839C2.78251 9.92864 2.7857 9.9191 2.78899 9.90932L2.22032 9.71795C2.21672 9.72866 2.21327 9.739 2.21006 9.74863L2.77926 9.93839ZM2.74464 10.0382C2.75754 10.0037 2.76897 9.96927 2.77926 9.93839L2.21006 9.74864C2.19911 9.78149 2.19106 9.80552 2.18256 9.8283L2.74464 10.0382ZM1.77378 12.6898C2.0982 11.8055 2.42179 10.9213 2.74536 10.0363L2.18183 9.83025C1.85831 10.7152 1.53481 11.5992 1.21049 12.4831L1.77378 12.6898ZM1.74878 12.7226C1.74713 12.7209 1.75023 12.7237 1.75354 12.7313C1.75686 12.7389 1.75787 12.7454 1.75806 12.7483C1.7582 12.7505 1.75768 12.7472 1.75974 12.7368C1.76184 12.7261 1.76601 12.7109 1.77375 12.6898L1.21052 12.483C1.1811 12.5631 1.15176 12.6692 1.15929 12.7867C1.16746 12.9143 1.21795 13.036 1.31596 13.1381L1.74878 12.7226ZM1.65987 12.6978C1.63738 12.7125 1.64701 12.6994 1.68079 12.7C1.699 12.7004 1.71682 12.7048 1.73153 12.7118C1.74533 12.7183 1.75049 12.7243 1.74827 12.722L1.31648 13.1386C1.40734 13.2328 1.52736 13.2972 1.66932 13.2999C1.80082 13.3024 1.91023 13.251 1.98792 13.2002L1.65987 12.6978ZM2.30478 12.2801C2.0901 12.4192 1.8755 12.5582 1.66086 12.6972L1.98692 13.2009C2.20169 13.0618 2.41641 12.9227 2.63106 12.7836L2.30478 12.2801ZM4.38331 10.9377C3.68887 11.3832 2.99645 11.8319 2.30478 12.2801L2.63106 12.7836C3.32292 12.3353 4.01419 11.8873 4.70728 11.4427L4.38331 10.9377ZM4.83124 10.8711C4.68352 10.8285 4.5096 10.8574 4.3843 10.9371L4.70629 11.4434C4.69852 11.4483 4.69334 11.4502 4.69182 11.4508C4.69085 11.4511 4.69028 11.4513 4.69007 11.4513C4.68986 11.4514 4.68978 11.4514 4.68975 11.4514C4.68972 11.4514 4.68952 11.4514 4.68906 11.4515C4.6886 11.4515 4.68762 11.4515 4.68608 11.4515C4.68352 11.4514 4.67618 11.4509 4.66502 11.4476L4.83124 10.8711ZM6.25136 11.1309C5.77319 11.1027 5.30476 11.0088 4.83188 10.8713L4.66438 11.4475C5.16871 11.5941 5.68241 11.6983 6.21595 11.7299L6.25136 11.1309ZM8.18835 10.8749C7.55564 11.08 6.90973 11.1697 6.25129 11.1309L6.21601 11.7299C6.95358 11.7733 7.67412 11.6724 8.37337 11.4457L8.18835 10.8749ZM10.4002 9.47063C9.76984 10.1519 9.02159 10.6046 8.18829 10.875L8.37343 11.4457C9.29747 11.1459 10.1357 10.6399 10.8406 9.87814L10.4002 9.47063ZM11.5719 7.2924C11.3781 8.14939 10.9663 8.86013 10.4004 9.47042L10.8404 9.87836C11.4686 9.20084 11.9371 8.39762 12.1571 7.42477L11.5719 7.2924ZM11.6626 6.77544C11.635 6.95785 11.6093 7.12756 11.5719 7.29224L12.1571 7.42493C12.2001 7.23527 12.2289 7.04375 12.2559 6.86506L11.6626 6.77544ZM2.31406 12.383C2.33854 12.3683 2.35696 12.3574 2.37217 12.3484L2.06616 11.8323C2.05081 11.8414 2.0313 11.8529 2.00546 11.8684L2.31406 12.383ZM2.15894 12.4257H2.15976V11.8257H2.15894V12.4257ZM2.23612 11.0328C2.12003 11.3495 2.00565 11.666 1.87669 12.024L2.44119 12.2274C2.57007 11.8695 2.68398 11.5543 2.79947 11.2393L2.23612 11.0328ZM2.52023 10.2607C2.42538 10.5178 2.33041 10.7751 2.23607 11.0329L2.79952 11.2391C2.89354 10.9822 2.98823 10.7256 3.08312 10.4685L2.52023 10.2607ZM2.68708 9.80816C2.63156 9.95905 2.57591 10.1098 2.52023 10.2607L3.08312 10.4685C3.13879 10.3176 3.19453 10.1666 3.25017 10.0154L2.68708 9.80816ZM2.66189 9.69614C2.69741 9.73064 2.71355 9.74936 2.72104 9.75962C2.7266 9.76723 2.71991 9.76011 2.71576 9.74242C2.7116 9.72466 2.71446 9.71531 2.71284 9.72448C2.71068 9.7368 2.70435 9.7612 2.68706 9.80822L3.25019 10.0153C3.29017 9.90658 3.3366 9.76186 3.29991 9.60542C3.26343 9.44988 3.15818 9.34174 3.07992 9.26573L2.66189 9.69614ZM1.19437 5.68001C1.03579 7.30727 1.5745 8.64521 2.66242 9.69665L3.07939 9.26522C2.11928 8.3373 1.65122 7.17813 1.79154 5.73821L1.19437 5.68001ZM2.54361 2.87173C1.81456 3.61943 1.30554 4.54036 1.19437 5.67998L1.79154 5.73823C1.88731 4.75644 2.32265 3.9578 2.9732 3.2906L2.54361 2.87173ZM5.68053 1.28995C4.50215 1.46127 3.43742 1.95447 2.54354 2.8718L2.97326 3.29053C3.76774 2.47521 4.70834 2.0376 5.76686 1.88371L5.68053 1.28995ZM8.57113 1.61942C7.62983 1.24355 6.66231 1.14734 5.68057 1.28994L5.76682 1.88371C6.65081 1.7553 7.51125 1.84226 8.34863 2.17664L8.57113 1.61942ZM10.8901 3.38555C10.2648 2.54301 9.47224 1.97998 8.57132 1.6195L8.34843 2.17656C9.15722 2.50017 9.8559 2.99879 10.4082 3.7431L10.8901 3.38555ZM11.1239 8.70867C12.1705 7.02736 12.0478 4.94516 10.89 3.38551L10.4083 3.74314C11.4233 5.11049 11.5273 6.92535 10.6145 8.39159L11.1239 8.70867ZM7.88377 11.0457C9.18875 10.7004 10.3243 9.99285 11.1239 8.7087L10.6146 8.39155C9.90815 9.52601 8.91187 10.153 7.7303 10.4656L7.88377 11.0457ZM4.77883 10.9377C5.79867 11.2747 6.84179 11.3211 7.8837 11.0457L7.73038 10.4656C6.80637 10.7098 5.88194 10.6703 4.96707 10.368L4.77883 10.9377ZM4.44955 10.9955C4.52414 10.9455 4.5758 10.9259 4.61654 10.9188C4.65491 10.9123 4.70414 10.9133 4.77973 10.938L4.96617 10.3677C4.81593 10.3186 4.66685 10.3014 4.51491 10.3275C4.36534 10.3532 4.23469 10.4172 4.11548 10.4971L4.44955 10.9955ZM2.97095 11.9631C3.46349 11.6446 3.95854 11.3245 4.44949 10.9955L4.11554 10.4971C3.62932 10.8228 3.13837 11.1403 2.64515 11.4592L2.97095 11.9631ZM2.43242 12.3118C2.61163 12.1954 2.79112 12.0793 2.97095 11.9631L2.64515 11.4592C2.46541 11.5754 2.28538 11.6919 2.10553 11.8087L2.43242 12.3118ZM2.37217 12.3484C2.39286 12.3361 2.41065 12.3256 2.4285 12.3144L2.10945 11.8062C2.09939 11.8125 2.08871 11.8189 2.06616 11.8323L2.37217 12.3484Z" fill="#7C442D" mask="url(#path-3-outside-1_1221_892)"/>
</g>
</g>
</g>
</svg>
