<svg width="57" height="57" viewBox="0 0 57 57" fill="none" xmlns="http://www.w3.org/2000/svg">
<g id="Icons/Add">
<path id="Vector" d="M42.4237 14.1395C50.0373 21.8123 50.4801 34.3221 42.4115 42.441C34.832 50.068 22.3039 50.5406 14.1626 42.4466C6.2648 34.5917 6.25782 22.0724 14.0867 14.1976C21.9319 6.308 34.4556 6.29426 42.4237 14.1395ZM15.3188 41.1645C22.4296 48.2324 33.7909 48.4898 41.0894 41.3023C48.3236 34.1777 48.374 22.7604 41.3016 15.5001C34.2632 8.27233 22.6763 8.15617 15.4237 15.3215C8.24275 22.415 8.15089 33.8324 15.3195 41.1638L15.3188 41.1645Z" fill="#FAF4EB"/>
<path id="Vector_2" d="M28.267 27.0831L28.7531 26.5971C30.7697 24.5805 32.7855 22.5632 34.8043 20.5488C34.9626 20.3905 35.1239 20.2041 35.3222 20.1213C35.7158 19.9571 36.0755 20.0668 36.3369 20.4184C36.5842 20.7501 36.6006 21.1008 36.3351 21.4212C36.1028 21.7008 35.835 21.9523 35.5768 22.2105C33.6964 24.0925 31.8144 25.9729 29.9332 27.8542C29.8008 27.9866 29.6683 28.119 29.4856 28.3017C29.6522 28.4683 29.7825 28.5986 29.9135 28.7296C31.9317 30.7478 33.9498 32.7659 35.9679 34.784C36.1034 34.9195 36.2448 35.052 36.3581 35.2038C36.6157 35.5458 36.573 35.9942 36.2534 36.2812C35.9183 36.5823 35.5424 36.6562 35.1693 36.363C34.925 36.1705 34.7132 35.935 34.4919 35.7137C32.5715 33.7948 30.6526 31.8744 28.7329 29.9547L28.2828 29.5046L27.8204 29.9669C25.8282 31.9591 23.8368 33.9505 21.8439 35.942C21.6967 36.0892 21.5539 36.2483 21.383 36.3629C21.0057 36.6144 20.6342 36.6053 20.2988 36.2685C19.9634 35.9331 19.9448 35.552 20.2103 35.1858C20.4026 34.9209 20.6541 34.6975 20.8872 34.4645C22.7913 32.5574 24.6984 30.6518 26.6041 28.7461L27.0642 28.286C26.8954 28.1172 26.754 27.9758 26.6119 27.8337C24.5567 25.7785 22.5038 23.7226 20.4457 21.6704C20.1629 21.3876 19.9348 21.1019 20.076 20.6631C20.2667 20.0697 20.9216 19.856 21.4094 20.2433C21.5449 20.3506 21.6648 20.4794 21.7877 20.6023C23.7933 22.6079 25.7988 24.6134 27.8051 26.6197L28.2678 27.0824L28.267 27.0831Z" fill="#FAF4EB"/>
</g>
</svg>
