<svg width="24" height="24" viewBox="0 0 24 24" fill="none" xmlns="http://www.w3.org/2000/svg">
<g id="QKN3Fd">
<path id="Vector" d="M11.9979 0C18.4833 0.0251085 23.9787 5.14473 24 12.0125C24.0202 18.4642 18.9054 23.9799 12.0173 24C5.33401 24.0182 0.0195239 18.7096 5.0031e-05 12.0471C-0.0187957 5.37134 5.28878 0.0521001 11.9979 0ZM11.9639 22.9655C17.9795 22.9473 22.9089 18.2363 22.956 12.0904C23.0025 5.99842 18.1799 1.13302 12.099 1.0533C6.04638 0.972954 1.08117 5.83961 1.0441 11.9567C1.00704 18.0128 5.81206 22.8958 11.9639 22.9649V22.9655Z" fill="#652910"/>
<path id="Vector_2" d="M11.4834 11.4978V11.0854C11.4834 9.37426 11.4828 7.66311 11.4847 5.95197C11.4847 5.81764 11.474 5.67012 11.523 5.55086C11.6204 5.31421 11.8195 5.20813 12.0796 5.24642C12.3252 5.2822 12.481 5.42406 12.5042 5.67264C12.5243 5.88982 12.5174 6.11015 12.5174 6.32922C12.5181 7.92549 12.5174 9.52177 12.5174 11.118C12.5174 11.2304 12.5174 11.3428 12.5174 11.4978C12.6588 11.4978 12.7693 11.4978 12.8805 11.4978C14.593 11.4978 16.3054 11.4978 18.0179 11.4978C18.1328 11.4978 18.249 11.494 18.3615 11.5104C18.6159 11.5461 18.788 11.7545 18.7742 12.0119C18.7598 12.2818 18.6316 12.4726 18.3489 12.5065C18.1636 12.5285 17.9739 12.5185 17.7861 12.5185C16.1572 12.5191 14.5283 12.5185 12.8994 12.5185H12.5174V12.9108C12.5174 14.6012 12.5174 16.291 12.5168 17.9814C12.5168 18.1064 12.5237 18.2344 12.4998 18.3556C12.4464 18.6223 12.285 18.7761 11.9998 18.7755C11.7152 18.7755 11.5456 18.6217 11.5029 18.3537C11.4721 18.1597 11.4841 17.9582 11.4841 17.7605C11.4828 16.1435 11.4834 14.5259 11.4834 12.9089V12.5185C11.3402 12.5185 11.2202 12.5185 11.0996 12.5185C9.35575 12.5185 7.61252 12.5172 5.86867 12.5197C5.6287 12.5197 5.41072 12.4952 5.28445 12.2492C5.11358 11.9165 5.30079 11.548 5.67205 11.5053C5.77507 11.4934 5.8806 11.4972 5.98488 11.4972C7.68665 11.4972 9.38842 11.4972 11.0908 11.4972H11.4834V11.4978Z" fill="#652910"/>
</g>
</svg>
