<svg width="16" height="22" viewBox="0 0 16 22" fill="none" xmlns="http://www.w3.org/2000/svg">
<g id="Icons/Drop">
<path id="Vector" d="M8.30318 0.000533738C8.66184 0.165459 8.87547 0.44407 9.07767 0.74243C10.9059 3.43941 12.6577 6.17375 14.1519 9.03085C14.7867 10.244 15.3626 11.4786 15.7526 12.7766C16.2647 14.4787 15.9614 16.0917 15.0311 17.608C13.8353 19.5578 11.9819 20.7944 9.52058 21.1979C7.34695 21.5545 5.28044 21.2236 3.44141 20.0648C1.44591 18.8073 0.325998 17.085 0.0377463 14.9356C-0.0850166 14.0202 0.105146 13.1342 0.413256 12.2637C1.11914 10.2686 2.1205 8.38556 3.23981 6.55537C4.46383 4.55439 5.75284 2.58489 7.03523 0.612731C7.19049 0.37415 7.47694 0.20282 7.7026 0C7.903 0 8.10279 0 8.30318 0V0.000533738ZM8.02335 0.889741C7.9379 1.00183 7.88976 1.0568 7.85185 1.11658C6.59654 3.08074 5.31294 5.03155 4.09675 7.01439C3.05206 8.71754 2.11388 10.4698 1.43448 12.3203C1.19256 12.9789 0.978929 13.6466 1.00481 14.3474C1.06258 15.9299 1.66917 17.3134 2.90462 18.4796C4.14609 19.6517 5.66799 20.3263 7.45949 20.4288C10.0941 20.5799 12.2232 19.6811 13.7559 17.7665C14.6875 16.603 15.1159 15.2841 14.9667 13.8532C14.862 12.8476 14.4467 11.9104 14.0213 10.9827C12.973 8.69833 11.6768 6.52228 10.3065 4.38039C9.56752 3.22591 8.80506 2.08371 8.02335 0.889741Z" fill="#FAF4EB"/>
</g>
</svg>
