<svg width="29" height="20" viewBox="0 0 29 20" fill="none" xmlns="http://www.w3.org/2000/svg">
<g id="Icons/Mail">
<path id="Vector" d="M28.75 19.5635C28.5676 19.8843 28.2861 19.9921 27.916 19.9921C24.4084 19.9895 20.9035 20 17.3959 20C11.9039 20 6.40915 19.9921 0.917125 19.9869C0.179671 19.9869 0 19.8133 0 19.1007C0 13.0292 0 6.95766 0 0.886142C0 0.173547 0.166262 0.00525901 0.8769 0.00525901C9.87116 0.00525901 18.8654 0.00788851 27.8597 0C28.2351 0 28.5382 0.0762556 28.75 0.394425V19.5661V19.5635ZM27.5272 1.98527C27.3931 2.0852 27.3153 2.13779 27.2429 2.19826C23.1373 5.4904 19.0317 8.78517 14.9261 12.0773C14.4997 12.4191 14.2583 12.4244 13.8507 12.0983C10.1152 9.10334 6.38233 6.10571 2.64679 3.1107C2.18823 2.74257 1.72698 2.3797 1.23624 1.9879V18.7799H27.5272V1.98527ZM26.5966 1.20694H2.148C6.26434 4.50171 10.319 7.74915 14.3737 10.9966C18.4525 7.73074 22.4937 4.49382 26.594 1.20694H26.5966Z" fill="#4B1B0B"/>
</g>
</svg>
