<svg width="130" height="130" viewBox="0 0 130 130" fill="none" xmlns="http://www.w3.org/2000/svg">
<g id="Ovum icon">
<circle id="Ellipse 57" cx="65" cy="65" r="65" fill="#DBD6FA"/>
<g id="Ovum rings">
<path id="Vector" d="M75.4066 75.0633C83.8107 59.1448 82.4251 41.96 72.3118 36.68C62.1985 31.3999 47.1872 40.024 38.7831 55.9424C30.379 71.8608 31.7646 89.0456 41.8779 94.3257C51.9912 99.6058 67.0025 90.9817 75.4066 75.0633Z" stroke="#7C442D" stroke-width="2" stroke-miterlimit="10"/>
<path id="Vector_2" d="M91.5375 75.064C99.9416 59.1456 98.556 41.9608 88.4427 36.6808C78.3294 31.4007 63.3181 40.0248 54.914 55.9432C46.5099 71.8616 47.8955 89.0464 58.0088 94.3265C68.1221 99.6066 83.1334 90.9825 91.5375 75.064Z" stroke="#7C442D" stroke-width="2" stroke-miterlimit="10"/>
<path id="Vector_3" d="M88.9732 94.3201C99.0865 89.04 100.472 71.8552 92.068 55.9368C83.6639 40.0184 68.6526 31.3943 58.5393 36.6744C48.426 41.9545 47.0404 59.1392 55.4445 75.0577C63.8486 90.9761 78.8599 99.6002 88.9732 94.3201Z" stroke="#7C442D" stroke-width="2" stroke-miterlimit="10"/>
<path id="Vector_4" d="M71.7457 94.3195C81.859 89.0395 83.2446 71.8547 74.8405 55.9363C66.4364 40.0178 51.4251 31.3937 41.3118 36.6738C31.1985 41.9539 29.8129 59.1387 38.217 75.0571C46.621 90.9755 61.6324 99.5996 71.7457 94.3195Z" stroke="#7C442D" stroke-width="2" stroke-miterlimit="10"/>
</g>
</g>
</svg>
