<svg width="79" height="56" viewBox="0 0 79 56" fill="none" xmlns="http://www.w3.org/2000/svg">
<path d="M39.137 29.8803C39.137 29.8803 25.3547 54.7803 12.2976 54.7803C0.677668 54.7803 0.691001 28.2882 0.691001 28.2882C0.691001 28.2882 -0.759492 1 12.2976 1C25.3547 1 39.137 29.8779 39.137 29.8779V29.8803Z" stroke="#FAF4EB" stroke-width="1.2872" stroke-miterlimit="10"/>
<path d="M39.1371 29.8803C39.1371 29.8803 31.3727 54.7803 24.0189 54.7803C17.473 54.7803 17.481 28.2882 17.481 28.2882C17.481 28.2882 16.6651 0.999977 24.0189 0.999977C31.3727 0.999977 39.1371 29.8779 39.1371 29.8779V29.8803Z" stroke="#FAF4EB" stroke-width="1.2872" stroke-miterlimit="10"/>
<path d="M39.1875 29.8803C39.1875 29.8803 52.9698 54.7803 66.0269 54.7803C77.6469 54.7803 77.6335 28.2882 77.6335 28.2882C77.6335 28.2882 79.084 0.999977 66.0269 0.999977C52.9698 0.999977 39.1875 29.8779 39.1875 29.8779V29.8803Z" stroke="#FAF4EB" stroke-width="1.2872" stroke-miterlimit="10"/>
<path d="M39.1875 29.8803C39.1875 29.8803 46.9519 54.7803 54.3057 54.7803C60.8516 54.7803 60.8436 28.2882 60.8436 28.2882C60.8436 28.2882 61.6595 0.999977 54.3057 0.999977C46.9519 0.999977 39.1875 29.8779 39.1875 29.8779V29.8803Z" stroke="#FAF4EB" stroke-width="1.2872" stroke-miterlimit="10"/>
</svg>
