<svg width="30" height="28" viewBox="0 0 30 28" fill="none" xmlns="http://www.w3.org/2000/svg">
<path d="M10 0.5L5.5 3L9.5 11.5H1V17H9.5L5.5 24.5L10.5 27L15 20.5L19.5 27.5L24.5 24.5L20.5 16.5H29V11H20.5L24.5 3.5L19.5 0.5L15 7.5L10 0.5Z" fill="#CEC8F4"/>
<path d="M0.00150032 11.7835C0.0637634 11.6373 0.116274 11.4859 0.19054 11.3464C0.57162 10.6356 1.17625 10.3009 1.98642 10.3024C3.99384 10.3061 6.00201 10.3039 8.00943 10.3039C8.14446 10.3039 8.28024 10.3039 8.46478 10.3039C8.39126 10.1636 8.34025 10.0568 8.28099 9.95512C7.27878 8.23734 6.27582 6.5203 5.27136 4.80326C5.02156 4.3766 4.86702 3.92619 4.94879 3.42755C5.04406 2.84506 5.35613 2.39985 5.87073 2.10378C6.93671 1.49013 7.99743 0.867574 9.07691 0.279151C10.1159 -0.287754 11.1158 0.0231531 11.7385 1.08128C12.7467 2.79535 13.7451 4.51536 14.7489 6.2324C14.8096 6.33554 14.8771 6.43497 14.9717 6.58411C15.2252 6.15448 15.4563 5.76715 15.6836 5.37759C16.499 3.97962 17.3114 2.58016 18.1276 1.18293C18.8447 -0.044371 19.8394 -0.305563 21.0839 0.40381C22.0119 0.932872 22.9398 1.46119 23.8655 1.99396C25.047 2.6744 25.3178 3.66797 24.6374 4.83591C23.6495 6.53292 22.657 8.22844 21.6676 9.9247C21.606 10.0293 21.5505 10.1369 21.4688 10.2853C21.6308 10.2927 21.7598 10.3031 21.8889 10.3031C23.8595 10.3039 25.8294 10.3031 27.8001 10.3039C29.1886 10.3039 29.9305 11.0325 29.932 12.3941C29.9328 13.4671 29.9328 14.5401 29.932 15.6138C29.9305 16.9843 29.1976 17.7041 27.8008 17.7048C25.8429 17.7055 23.885 17.7048 21.9271 17.7048C21.7913 17.7048 21.6556 17.7048 21.456 17.7048C21.5408 17.8577 21.6015 17.9719 21.6668 18.0832C22.657 19.7795 23.6225 21.4906 24.6464 23.1668C25.3808 24.3696 24.846 25.5161 23.8738 26.0244C22.9053 26.5312 21.9721 27.1025 21.0209 27.6412C19.8604 28.2994 18.841 28.0308 18.1718 26.8896C17.1734 25.1851 16.1787 23.4777 15.1809 21.7726C15.1209 21.6702 15.0527 21.5722 14.9566 21.4238C14.5478 22.1228 14.1637 22.7787 13.7796 23.4362C13.076 24.6405 12.3874 25.8537 11.665 27.0476C11.0941 27.9907 10.0716 28.2645 9.07691 27.7288C7.98318 27.1396 6.9052 26.5215 5.84148 25.8811C4.89028 25.309 4.66823 24.2613 5.25711 23.2358C6.06953 21.8223 6.8992 20.4184 7.72212 19.0108C7.96368 18.5967 8.20523 18.1827 8.47303 17.7248C8.3005 17.7174 8.17147 17.7063 8.04169 17.7063C6.14604 17.7055 4.24964 17.6729 2.3555 17.7174C1.192 17.7449 0.377329 17.3538 0 16.2252C0 14.7449 0 13.2645 0 11.7842L0.00150032 11.7835ZM24.2248 16.4589C25.4349 16.4589 26.6441 16.4604 27.8541 16.4589C28.4955 16.4582 28.6778 16.2794 28.68 15.6472C28.683 14.5616 28.6823 13.476 28.68 12.3904C28.6785 11.7085 28.515 11.5512 27.8129 11.5505C25.4183 11.5497 23.0238 11.5341 20.6301 11.5594C19.8574 11.5675 19.5716 11.0043 19.9414 10.3951C21.165 8.37832 22.3284 6.32515 23.5144 4.28533C23.9015 3.62048 23.843 3.40677 23.1611 3.01573C22.2347 2.48444 21.3067 1.95538 20.378 1.42632C19.8552 1.12802 19.5529 1.21187 19.2423 1.74019C18.9422 2.25145 18.6437 2.76418 18.3451 3.27618C17.4367 4.83368 16.529 6.39267 15.6183 7.94869C15.2162 8.63655 14.7158 8.63135 14.31 7.94053C14.1412 7.65263 13.9739 7.36398 13.8059 7.07608C12.7662 5.29448 11.728 3.5114 10.6867 1.73055C10.3709 1.19035 10.0949 1.11912 9.55476 1.42632C8.59381 1.97319 7.63286 2.51932 6.6734 3.06841C6.12804 3.3808 6.05152 3.65461 6.35984 4.18738C6.79193 4.93608 7.22927 5.68256 7.66436 6.42903C8.46028 7.79509 9.25995 9.15967 10.0506 10.5287C10.3447 11.0385 10.0874 11.497 9.494 11.5453C9.39498 11.5534 9.29446 11.5475 9.19468 11.5475C6.83769 11.5475 4.48069 11.5475 2.1237 11.5475C1.4088 11.5475 1.25501 11.7041 1.25426 12.4216C1.25351 13.4827 1.25276 14.543 1.25426 15.6041C1.25576 16.2905 1.4223 16.456 2.11394 16.456C4.50845 16.4567 6.90295 16.4812 9.29671 16.4419C10.0589 16.4293 10.3679 17.0058 9.98385 17.6328C8.74534 19.6556 7.57509 21.7191 6.38009 23.7671C6.04477 24.3415 6.11679 24.6145 6.69291 24.9455C7.61935 25.4767 8.54955 26.0028 9.47674 26.5326C10.0994 26.8881 10.3649 26.822 10.7198 26.2143C11.9215 24.1574 13.1353 22.1072 14.3153 20.0385C14.6468 19.4575 15.2492 19.3795 15.6213 20.0385C16.7938 22.1124 18.0135 24.1597 19.2145 26.2173C19.5656 26.8183 19.8312 26.8925 20.4245 26.5534C21.3517 26.0236 22.2797 25.4946 23.2076 24.9647C23.8183 24.6167 23.891 24.3607 23.546 23.7694C22.3457 21.7095 21.1672 19.6363 19.9332 17.5972C19.5079 16.8945 19.9737 16.4196 20.6323 16.4441C21.8281 16.4886 23.0261 16.4567 24.2233 16.4567L24.2248 16.4589Z" fill="#4B1B0B"/>
</svg>
