<svg width="28" height="28" viewBox="0 0 28 28" fill="none" xmlns="http://www.w3.org/2000/svg">
<g id="Investigate">
<circle id="Ellipse 62" cx="13.6744" cy="14.0396" r="13.4883" fill="#FFB4A4"/>
<path id="Vector" d="M16.6002 16.9497C16.593 17.0281 16.5827 17.083 16.5832 17.1375C16.5874 17.9442 16.5972 18.7508 16.5972 19.557C16.5972 20.2784 16.59 21.0003 16.5806 21.7218C16.5772 21.9867 16.4388 22.1293 16.1713 22.1298C14.5076 22.1336 12.844 22.1336 11.1803 22.1298C10.8864 22.1289 10.7659 21.9845 10.7659 21.6626C10.7646 20.1924 10.7655 18.7218 10.7655 17.2517C10.7655 17.161 10.7655 17.0702 10.7655 16.9493C10.6607 16.9493 10.5781 16.9493 10.4959 16.9493C9.03749 16.9493 7.57913 16.9493 6.12076 16.9493C5.68376 16.9493 5.58154 16.8475 5.58154 16.4123C5.58154 14.8267 5.58154 13.2411 5.58154 11.6555C5.58154 11.2237 5.67482 11.13 6.10373 11.1296C7.56209 11.1291 9.02046 11.1296 10.4788 11.1296C10.5627 11.1296 10.6462 11.1296 10.7531 11.1296C10.7578 11.0299 10.7655 10.9481 10.7655 10.8664C10.7663 9.39409 10.7655 7.92181 10.7663 6.44909C10.7663 6.04961 10.869 5.94697 11.2693 5.94697C12.8691 5.94655 14.4693 5.94655 16.0691 5.94697C16.4822 5.94697 16.5832 6.04876 16.5832 6.46102C16.5832 7.92649 16.5832 9.39154 16.5832 10.857V11.1296C16.6939 11.1296 16.7774 11.1296 16.8609 11.1296C18.3192 11.1296 19.7776 11.1296 21.236 11.1296C21.676 11.1296 21.7675 11.2224 21.7675 11.6679C21.7675 13.2535 21.7675 14.839 21.7675 16.4246C21.7675 16.8411 21.6581 16.9493 21.2364 16.9493C19.778 16.9493 18.3197 16.9493 16.8613 16.9493C16.7778 16.9493 16.6943 16.9493 16.6011 16.9493L16.6002 16.9497ZM15.8787 21.4139V21.1345C15.8787 19.669 15.8787 18.204 15.8787 16.7385C15.8787 16.3382 15.9767 16.2419 16.3817 16.2415C17.8541 16.2415 19.3266 16.2415 20.7994 16.2415C20.8816 16.2415 20.9638 16.2415 21.0456 16.2415V11.837C20.9455 11.837 20.8616 11.837 20.7777 11.837C19.3121 11.837 17.8469 11.837 16.3813 11.837C15.9877 11.837 15.8787 11.7275 15.8787 11.334C15.8787 9.86171 15.8787 8.38943 15.8787 6.91672C15.8787 6.83452 15.8787 6.75275 15.8787 6.66842H11.4691C11.4691 6.76595 11.4691 6.84985 11.4691 6.93333C11.4691 8.38432 11.4691 9.83573 11.4691 11.2867C11.4691 11.7416 11.3754 11.837 10.9282 11.837C9.46981 11.837 8.01144 11.837 6.55308 11.837H6.30008V16.2415H6.565C8.03742 16.2415 9.50984 16.2415 10.9827 16.2415C11.3647 16.2415 11.4691 16.3471 11.4691 16.7342C11.4695 18.2137 11.4691 19.6933 11.4691 21.1728V21.4139H15.8787Z" fill="#4B1B0B"/>
</g>
</svg>
