<svg width="28" height="28" viewBox="0 0 28 28" fill="none" xmlns="http://www.w3.org/2000/svg">
<g id="Icons/Edit">
<path id="Vector" d="M0 8.32789C0.175706 7.62654 0.469265 7.0005 1.03924 6.52074C1.61993 6.03023 2.28847 5.8237 3.02986 5.82155C6.60827 5.81724 10.1845 5.81939 13.7629 5.82155C14.2429 5.82155 14.5 6.03238 14.5065 6.41532C14.515 6.78105 14.2429 6.99835 13.7544 6.99835C10.1888 6.99835 6.62327 6.99835 3.05772 6.99835C2.10847 6.99835 1.44422 7.46519 1.22994 8.29992C1.17637 8.51075 1.16995 8.7388 1.16995 8.95823C1.1678 14.2764 1.16566 19.5946 1.16995 24.9128C1.16995 26.1283 1.86206 26.8146 3.077 26.8167C8.38461 26.8167 13.6944 26.8167 19.002 26.8167C20.2255 26.8167 20.9133 26.1154 20.9133 24.8762C20.9133 21.3071 20.9133 17.7401 20.9133 14.171C20.9133 13.6912 21.0976 13.4481 21.464 13.4352C21.7769 13.4245 21.9997 13.5944 22.0576 13.9064C22.0811 14.0312 22.0811 14.1624 22.0811 14.2893C22.0811 17.8111 22.079 21.3329 22.0833 24.8547C22.0833 26.1347 21.5754 27.1244 20.4205 27.6902C20.0198 27.8859 19.5291 27.9827 19.0791 27.9849C13.7244 28.0043 8.36961 27.9935 3.01486 28C1.40351 28 0.237847 26.8533 0.0407129 25.5323C0.0385702 25.513 0.0149998 25.4958 0.00214322 25.4764C0.00214322 19.7602 0.00214322 14.0462 0.00214322 8.33004L0 8.32789Z" fill="#4B1B0B"/>
<path id="Vector_2" d="M25.3017 0C26.0409 0.210834 26.6773 0.576565 27.1959 1.16604C28.1172 2.21375 28.1622 4.27906 27.1509 5.31817C26.0152 6.48636 24.8667 7.63949 23.7182 8.79477C21.0676 11.4582 18.417 14.1216 15.7535 16.772C15.565 16.9614 15.2735 17.1055 15.01 17.1485C13.66 17.3701 12.3015 17.553 10.9473 17.7466C10.4545 17.8176 10.1395 17.4949 10.2102 17.0044C10.4095 15.6103 10.5959 14.2119 10.8166 12.8221C10.853 12.5898 11.0009 12.3402 11.168 12.1703C13.9857 9.32831 16.8142 6.49712 19.6405 3.66377C20.339 2.96458 21.0461 2.27184 21.7318 1.55974C22.3789 0.888513 23.0303 0.232349 23.9774 0.00215346H25.3017V0ZM11.4616 16.4924C12.533 16.3396 13.5315 16.1847 14.53 16.0599C14.8021 16.0255 14.995 15.9158 15.1835 15.7243C18.7491 12.1337 22.3232 8.55167 25.8931 4.96535C26.0323 4.82551 26.1673 4.67922 26.2937 4.52862C26.8359 3.87461 26.9066 2.92155 26.4737 2.17288C26.0366 1.4156 25.1924 1.0219 24.3481 1.15313C23.761 1.24349 23.3389 1.58556 22.9382 1.98786C19.5076 5.43435 16.0814 8.88513 12.6358 12.3144C12.1708 12.777 11.8023 13.2287 11.8216 13.9193C11.8258 14.1151 11.7658 14.3109 11.738 14.5066C11.648 15.1499 11.5601 15.791 11.4616 16.4945V16.4924Z" fill="#4B1B0B"/>
</g>
</svg>
