<svg width="28" height="28" viewBox="0 0 28 28" fill="none" xmlns="http://www.w3.org/2000/svg">
<g id="Treated">
<circle id="Ellipse 63" cx="13.9178" cy="14.3348" r="13.4883" fill="#B2E09C"/>
<g id="Group 59">
<path id="Vector" d="M5.82471 13.8868C5.87825 13.5074 5.91151 13.1239 5.98818 12.7494C6.3711 10.8814 7.28258 9.32153 8.75262 8.10087C9.92533 7.12734 11.2696 6.53081 12.7823 6.32466C14.7399 6.05764 16.5681 6.43341 18.2357 7.49175C20.1231 8.68969 21.3056 10.3981 21.809 12.5789C22.8255 16.9827 19.8915 21.4604 15.4538 22.2704C15.1447 22.3268 14.834 22.3755 14.5241 22.4278H13.4718C13.1992 22.3953 12.925 22.3751 12.6549 22.3288C10.795 22.009 9.20491 21.184 7.93323 19.7771C6.91629 18.6522 6.25712 17.3451 5.97601 15.8526C5.91638 15.5364 5.8746 15.2167 5.82471 14.8989C5.82471 14.5617 5.82471 14.2241 5.82471 13.8868ZM6.50415 14.2991C6.48225 18.2752 9.61744 21.6641 13.7469 21.74C17.9485 21.8175 21.2816 18.5804 21.3246 14.3758C21.3664 10.2975 18.112 6.94067 13.955 6.91997C9.86367 6.89968 6.53539 10.1449 6.50415 14.2991Z" fill="#4B1B0B"/>
<path id="Vector_2" d="M13.1678 17.3164C12.9963 17.223 12.8028 17.1616 12.6569 17.031C11.8485 16.3111 11.0511 15.5759 10.2516 14.8431C10.0797 14.6855 10.0446 14.5327 10.1262 14.3751C10.2331 14.1685 10.4145 14.141 10.6084 14.3144C10.9886 14.6548 11.3649 15.0003 11.7427 15.3447C12.1293 15.6972 12.517 16.0484 12.9019 16.4037C13.1959 16.6753 13.3279 16.6588 13.552 16.3132C14.7484 14.4648 15.9445 12.616 17.1414 10.7681C17.1832 10.7034 17.2255 10.6359 17.2795 10.5858C17.3924 10.4803 17.5177 10.4689 17.6338 10.5777C17.7446 10.6816 17.784 10.8166 17.7218 10.973C17.7002 11.0271 17.6689 11.0773 17.6377 11.1258C16.4146 13.0186 15.1901 14.9098 13.9684 16.8039C13.7728 17.107 13.5214 17.2723 13.1682 17.3164H13.1678Z" fill="#4B1B0B"/>
</g>
</g>
</svg>
